<svg width="18" height="18" viewBox="0 0 18 18" fill="none" xmlns="http://www.w3.org/2000/svg">
<g opacity="0.4" clip-path="url(#clip0_620_2566)">
<path d="M2.20707 9.74049C2.20705 10.2586 2.62709 10.6787 3.14524 10.6787H4.01059C4.52872 10.6787 4.94875 10.2587 4.94877 9.74056V9.74056C4.94879 9.2224 4.52874 8.80234 4.01059 8.80234H3.14524C2.62712 8.80234 2.20709 9.22236 2.20707 9.74049V9.74049ZM2.2071 14.0144C2.2071 14.5588 2.64835 15 3.19266 15H3.96324C4.50755 15 4.9488 14.5587 4.9488 14.0144V14.0144C4.9488 13.4701 4.50755 13.0289 3.96324 13.0289H3.19266C2.64835 13.0289 2.2071 13.4701 2.2071 14.0144V14.0144ZM2.2071 5.40027C2.2071 5.89748 2.61017 6.30055 3.10738 6.30055H4.04853C4.54574 6.30055 4.9488 5.89748 4.9488 5.40027V5.40027C4.9488 4.90307 4.54574 4.5 4.04853 4.5H3.10738C2.61017 4.5 2.2071 4.90307 2.2071 5.40027V5.40027ZM6.31875 9.74049C6.31873 10.2586 6.73877 10.6787 7.25692 10.6787H17.0188C17.5369 10.6787 17.957 10.2587 17.957 9.74056V9.74056C17.957 9.2224 17.537 8.80234 17.0188 8.80234H7.25692C6.73879 8.80234 6.31876 9.22236 6.31875 9.74049V9.74049ZM6.31878 14.0144C6.31878 14.5588 6.76003 15 7.30434 15H16.9715C17.5158 15 17.957 14.5588 17.957 14.0144V14.0144C17.957 13.4701 17.5158 13.0289 16.9715 13.0289H7.30434C6.76003 13.0289 6.31878 13.4701 6.31878 14.0144V14.0144ZM7.21905 4.5C6.72185 4.5 6.31878 4.90307 6.31878 5.40027V5.40027C6.31878 5.89748 6.72185 6.30055 7.21905 6.30055H17.0568C17.554 6.30055 17.957 5.89748 17.957 5.40028V5.40028C17.957 4.90307 17.554 4.5 17.0568 4.5H7.21905Z" fill="white"/>
</g>
<defs>
<clipPath id="clip0_620_2566">
<rect width="18" height="18" fill="white"/>
</clipPath>
</defs>
</svg>
