<svg width="8" height="12" viewBox="0 0 8 12" fill="none" xmlns="http://www.w3.org/2000/svg">
<path d="M8 5.99836C7.9999 6.06286 7.98563 6.12639 7.95841 6.18351C7.93118 6.24064 7.89181 6.28968 7.84364 6.32645L0.57091 11.928C0.510108 11.9747 0.437786 11.9998 0.363637 12C0.305483 12.0003 0.248121 11.9852 0.196364 11.956C0.137074 11.9222 0.0873867 11.8711 0.0527492 11.8083C0.0181117 11.7455 -0.000138101 11.6734 7.86859e-07 11.5999V0.396826C-0.000138101 0.323355 0.0181117 0.25126 0.0527492 0.188446C0.0873867 0.125633 0.137074 0.0745258 0.196364 0.040729C0.253855 0.00977164 0.317753 -0.00394096 0.381602 0.000976796C0.445452 0.00589456 0.506991 0.0292684 0.560001 0.0687367L7.83273 5.67027C7.88292 5.70568 7.92442 5.75412 7.95359 5.81133C7.98276 5.86855 7.9987 5.93277 8 5.99836Z" fill="white"/>
</svg>
