<svg width="15" height="15" viewBox="0 0 15 15" fill="none" xmlns="http://www.w3.org/2000/svg">
<path fill-rule="evenodd" clip-rule="evenodd" d="M14.715 13.3589L10.6624 9.30623C11.3795 8.35658 11.8048 7.17416 11.8048 5.89241C11.8048 2.76096 9.2663 0.222412 6.13484 0.222412C3.00339 0.222412 0.464844 2.76096 0.464844 5.89241C0.464844 9.02387 3.00339 11.5624 6.13484 11.5624C7.41659 11.5624 8.59901 11.1371 9.54866 10.4199L13.6013 14.4726L14.715 13.3589ZM10.2298 5.89242C10.2298 8.15402 8.39638 9.98742 6.13478 9.98742C3.87317 9.98742 2.03978 8.15402 2.03978 5.89242C2.03978 3.63081 3.87317 1.79742 6.13478 1.79742C8.39638 1.79742 10.2298 3.63081 10.2298 5.89242Z" fill="#202C43"/>
</svg>
