<svg width="145" height="113" viewBox="0 0 145 113" fill="none" xmlns="http://www.w3.org/2000/svg">
<rect width="3.07221" height="2.30227" rx="0.430476" transform="matrix(-1 -1.74846e-07 -1.74846e-07 1 20.4451 14.421)" fill="#A6A6A6" fill-opacity="0.5"/>
<rect width="2.15055" height="0.460455" rx="0.230228" transform="matrix(-1 -1.74846e-07 -1.74846e-07 1 19.9843 16.8768)" fill="#A6A6A6" fill-opacity="0.5"/>
<rect width="3.07221" height="2.30227" rx="0.430476" transform="matrix(-1 -1.74846e-07 -1.74846e-07 1 26.1001 14.421)" fill="#A6A6A6" fill-opacity="0.5"/>
<rect width="2.15055" height="0.460455" rx="0.230228" transform="matrix(-1 -1.74846e-07 -1.74846e-07 1 25.6393 16.8768)" fill="#A6A6A6" fill-opacity="0.5"/>
<rect width="3.07221" height="2.30227" rx="0.430476" transform="matrix(-1 -1.74846e-07 -1.74846e-07 1 37.4103 14.421)" fill="#61C3F2"/>
<rect width="2.15055" height="0.460455" rx="0.230228" transform="matrix(-1 -1.74846e-07 -1.74846e-07 1 36.9495 16.8768)" fill="#61C3F2"/>
<rect width="3.07221" height="2.30227" rx="0.430476" transform="matrix(-1 -1.74846e-07 -1.74846e-07 1 43.0653 14.421)" fill="#61C3F2"/>
<rect width="2.15055" height="0.460455" rx="0.230228" transform="matrix(-1 -1.74846e-07 -1.74846e-07 1 42.6045 16.8768)" fill="#61C3F2"/>
<rect width="3.07221" height="2.30227" rx="0.430476" transform="matrix(-1 -1.74846e-07 -1.74846e-07 1 48.7205 14.421)" fill="#A6A6A6" fill-opacity="0.5"/>
<rect width="2.15055" height="0.460455" rx="0.230228" transform="matrix(-1 -1.74846e-07 -1.74846e-07 1 48.2596 16.8768)" fill="#A6A6A6" fill-opacity="0.5"/>
<rect width="3.07221" height="2.30227" rx="0.430476" transform="matrix(-1 -1.74846e-07 -1.74846e-07 1 54.3755 14.421)" fill="#A6A6A6" fill-opacity="0.5"/>
<rect width="2.15055" height="0.460455" rx="0.230228" transform="matrix(-1 -1.74846e-07 -1.74846e-07 1 53.9147 16.8768)" fill="#A6A6A6" fill-opacity="0.5"/>
<rect width="3.07221" height="2.30227" rx="0.430476" transform="matrix(-1 -1.74846e-07 -1.74846e-07 1 60.0305 14.421)" fill="#61C3F2"/>
<rect width="2.15055" height="0.460455" rx="0.230228" transform="matrix(-1 -1.74846e-07 -1.74846e-07 1 59.5697 16.8768)" fill="#61C3F2"/>
<rect width="3.07221" height="2.30227" rx="0.430476" transform="matrix(-1 -1.74846e-07 -1.74846e-07 1 65.6857 14.421)" fill="#61C3F2"/>
<rect width="2.15055" height="0.460455" rx="0.230228" transform="matrix(-1 -1.74846e-07 -1.74846e-07 1 65.2249 16.8768)" fill="#61C3F2"/>
<rect width="3.07221" height="2.30227" rx="0.430476" transform="matrix(-1 -1.74846e-07 -1.74846e-07 1 71.3407 14.421)" fill="#A6A6A6" fill-opacity="0.5"/>
<rect width="2.15055" height="0.460455" rx="0.230228" transform="matrix(-1 -1.74846e-07 -1.74846e-07 1 70.8799 16.8768)" fill="#A6A6A6" fill-opacity="0.5"/>
<rect width="3.07221" height="2.30227" rx="0.430476" transform="matrix(-1 -1.74846e-07 -1.74846e-07 1 76.9957 14.421)" fill="#A6A6A6" fill-opacity="0.5"/>
<rect width="2.15055" height="0.460455" rx="0.230228" transform="matrix(-1 -1.74846e-07 -1.74846e-07 1 76.5349 16.8768)" fill="#A6A6A6" fill-opacity="0.5"/>
<rect width="3.07221" height="2.30227" rx="0.430476" transform="matrix(-1 -1.74846e-07 -1.74846e-07 1 82.6509 14.421)" fill="#61C3F2"/>
<rect width="2.15055" height="0.460455" rx="0.230228" transform="matrix(-1 -1.74846e-07 -1.74846e-07 1 82.1901 16.8768)" fill="#61C3F2"/>
<rect width="3.07221" height="2.30227" rx="0.430476" transform="matrix(-1 -1.74846e-07 -1.74846e-07 1 88.3059 14.421)" fill="#61C3F2"/>
<rect width="2.15055" height="0.460455" rx="0.230228" transform="matrix(-1 -1.74846e-07 -1.74846e-07 1 87.8451 16.8768)" fill="#61C3F2"/>
<rect width="3.07221" height="2.30227" rx="0.430476" transform="matrix(-1 -1.74846e-07 -1.74846e-07 1 93.9609 14.421)" fill="#A6A6A6" fill-opacity="0.5"/>
<rect width="2.15055" height="0.460455" rx="0.230228" transform="matrix(-1 -1.74846e-07 -1.74846e-07 1 93.5001 16.8768)" fill="#A6A6A6" fill-opacity="0.5"/>
<rect width="3.07221" height="2.30227" rx="0.430476" transform="matrix(-1 -1.74846e-07 -1.74846e-07 1 99.6161 14.421)" fill="#A6A6A6" fill-opacity="0.5"/>
<rect width="2.15055" height="0.460455" rx="0.230228" transform="matrix(-1 -1.74846e-07 -1.74846e-07 1 99.1552 16.8768)" fill="#A6A6A6" fill-opacity="0.5"/>
<rect width="3.07221" height="2.30227" rx="0.430476" transform="matrix(-1 -1.74846e-07 -1.74846e-07 1 105.271 14.421)" fill="#61C3F2"/>
<rect width="2.15055" height="0.460455" rx="0.230228" transform="matrix(-1 -1.74846e-07 -1.74846e-07 1 104.81 16.8768)" fill="#61C3F2"/>
<rect width="3.07221" height="2.30227" rx="0.430476" transform="matrix(-1 -1.74846e-07 -1.74846e-07 1 110.926 14.421)" fill="#61C3F2"/>
<rect width="2.15055" height="0.460455" rx="0.230228" transform="matrix(-1 -1.74846e-07 -1.74846e-07 1 110.465 16.8768)" fill="#61C3F2"/>
<rect width="3.07221" height="2.30227" rx="0.430476" transform="matrix(-1 -1.74846e-07 -1.74846e-07 1 122.236 14.421)" fill="#A6A6A6" fill-opacity="0.5"/>
<rect width="2.15055" height="0.460455" rx="0.230228" transform="matrix(-1 -1.74846e-07 -1.74846e-07 1 121.776 16.8768)" fill="#A6A6A6" fill-opacity="0.5"/>
<rect width="3.07221" height="2.30227" rx="0.430476" transform="matrix(-1 -1.74846e-07 -1.74846e-07 1 127.891 14.421)" fill="#A6A6A6" fill-opacity="0.5"/>
<rect width="2.15055" height="0.460455" rx="0.230228" transform="matrix(-1 -1.74846e-07 -1.74846e-07 1 127.431 16.8768)" fill="#A6A6A6" fill-opacity="0.5"/>
<rect width="3.07221" height="2.30227" rx="0.430476" transform="matrix(-1 -1.74846e-07 -1.74846e-07 1 9.13489 21.2115)" fill="#61C3F2"/>
<rect width="2.15055" height="0.460455" rx="0.230228" transform="matrix(-1 -1.74846e-07 -1.74846e-07 1 8.67407 23.6673)" fill="#61C3F2"/>
<rect width="3.07221" height="2.30227" rx="0.430476" transform="matrix(-1 -1.74846e-07 -1.74846e-07 1 14.79 21.2115)" fill="#A6A6A6" fill-opacity="0.5"/>
<rect width="2.15055" height="0.460455" rx="0.230228" transform="matrix(-1 -1.74846e-07 -1.74846e-07 1 14.3292 23.6673)" fill="#A6A6A6" fill-opacity="0.5"/>
<rect width="3.07221" height="2.30227" rx="0.430476" transform="matrix(-1 -1.74846e-07 -1.74846e-07 1 20.4451 21.2115)" fill="#61C3F2"/>
<rect width="2.15055" height="0.460455" rx="0.230228" transform="matrix(-1 -1.74846e-07 -1.74846e-07 1 19.9843 23.6673)" fill="#61C3F2"/>
<rect width="3.07221" height="2.30227" rx="0.430476" transform="matrix(-1 -1.74846e-07 -1.74846e-07 1 26.1001 21.2115)" fill="#A6A6A6" fill-opacity="0.5"/>
<rect width="2.15055" height="0.460455" rx="0.230228" transform="matrix(-1 -1.74846e-07 -1.74846e-07 1 25.6393 23.6673)" fill="#A6A6A6" fill-opacity="0.5"/>
<rect width="3.07221" height="2.30227" rx="0.430476" transform="matrix(-1 -1.74846e-07 -1.74846e-07 1 37.4103 21.2115)" fill="#A6A6A6" fill-opacity="0.5"/>
<rect width="2.15055" height="0.460455" rx="0.230228" transform="matrix(-1 -1.74846e-07 -1.74846e-07 1 36.9495 23.6673)" fill="#A6A6A6" fill-opacity="0.5"/>
<rect width="3.07221" height="2.30227" rx="0.430476" transform="matrix(-1 -1.74846e-07 -1.74846e-07 1 43.0653 21.2115)" fill="#A6A6A6" fill-opacity="0.5"/>
<rect width="2.15055" height="0.460455" rx="0.230228" transform="matrix(-1 -1.74846e-07 -1.74846e-07 1 42.6045 23.6673)" fill="#A6A6A6" fill-opacity="0.5"/>
<rect width="3.07221" height="2.30227" rx="0.430476" transform="matrix(-1 -1.74846e-07 -1.74846e-07 1 48.7205 21.2115)" fill="#61C3F2"/>
<rect width="2.15055" height="0.460455" rx="0.230228" transform="matrix(-1 -1.74846e-07 -1.74846e-07 1 48.2596 23.6673)" fill="#61C3F2"/>
<rect width="3.07221" height="2.30227" rx="0.430476" transform="matrix(-1 -1.74846e-07 -1.74846e-07 1 54.3755 21.2115)" fill="#61C3F2"/>
<rect width="2.15055" height="0.460455" rx="0.230228" transform="matrix(-1 -1.74846e-07 -1.74846e-07 1 53.9147 23.6673)" fill="#61C3F2"/>
<rect width="3.07221" height="2.30227" rx="0.430476" transform="matrix(-1 -1.74846e-07 -1.74846e-07 1 60.0305 21.2115)" fill="#A6A6A6" fill-opacity="0.5"/>
<rect width="2.15055" height="0.460455" rx="0.230228" transform="matrix(-1 -1.74846e-07 -1.74846e-07 1 59.5697 23.6673)" fill="#A6A6A6" fill-opacity="0.5"/>
<rect width="3.07221" height="2.30227" rx="0.430476" transform="matrix(-1 -1.74846e-07 -1.74846e-07 1 65.6857 21.2115)" fill="#A6A6A6" fill-opacity="0.5"/>
<rect width="2.15055" height="0.460455" rx="0.230228" transform="matrix(-1 -1.74846e-07 -1.74846e-07 1 65.2249 23.6673)" fill="#A6A6A6" fill-opacity="0.5"/>
<rect width="3.07221" height="2.30227" rx="0.430476" transform="matrix(-1 -1.74846e-07 -1.74846e-07 1 71.3407 21.2115)" fill="#61C3F2"/>
<rect width="2.15055" height="0.460455" rx="0.230228" transform="matrix(-1 -1.74846e-07 -1.74846e-07 1 70.8799 23.6673)" fill="#61C3F2"/>
<rect width="3.07221" height="2.30227" rx="0.430476" transform="matrix(-1 -1.74846e-07 -1.74846e-07 1 76.9957 21.2115)" fill="#61C3F2"/>
<rect width="2.15055" height="0.460455" rx="0.230228" transform="matrix(-1 -1.74846e-07 -1.74846e-07 1 76.5349 23.6673)" fill="#61C3F2"/>
<rect width="3.07221" height="2.30227" rx="0.430476" transform="matrix(-1 -1.74846e-07 -1.74846e-07 1 82.6509 21.2115)" fill="#A6A6A6" fill-opacity="0.5"/>
<rect width="2.15055" height="0.460455" rx="0.230228" transform="matrix(-1 -1.74846e-07 -1.74846e-07 1 82.1901 23.6673)" fill="#A6A6A6" fill-opacity="0.5"/>
<rect width="3.07221" height="2.30227" rx="0.430476" transform="matrix(-1 -1.74846e-07 -1.74846e-07 1 88.3059 21.2115)" fill="#A6A6A6" fill-opacity="0.5"/>
<rect width="2.15055" height="0.460455" rx="0.230228" transform="matrix(-1 -1.74846e-07 -1.74846e-07 1 87.8451 23.6673)" fill="#A6A6A6" fill-opacity="0.5"/>
<rect width="3.07221" height="2.30227" rx="0.430476" transform="matrix(-1 -1.74846e-07 -1.74846e-07 1 93.9609 21.2115)" fill="#61C3F2"/>
<rect width="2.15055" height="0.460455" rx="0.230228" transform="matrix(-1 -1.74846e-07 -1.74846e-07 1 93.5001 23.6673)" fill="#61C3F2"/>
<rect width="3.07221" height="2.30227" rx="0.430476" transform="matrix(-1 -1.74846e-07 -1.74846e-07 1 99.6161 21.2115)" fill="#61C3F2"/>
<rect width="2.15055" height="0.460455" rx="0.230228" transform="matrix(-1 -1.74846e-07 -1.74846e-07 1 99.1552 23.6673)" fill="#61C3F2"/>
<rect width="3.07221" height="2.30227" rx="0.430476" transform="matrix(-1 -1.74846e-07 -1.74846e-07 1 105.271 21.2115)" fill="#A6A6A6" fill-opacity="0.5"/>
<rect width="2.15055" height="0.460455" rx="0.230228" transform="matrix(-1 -1.74846e-07 -1.74846e-07 1 104.81 23.6673)" fill="#A6A6A6" fill-opacity="0.5"/>
<rect width="3.07221" height="2.30227" rx="0.430476" transform="matrix(-1 -1.74846e-07 -1.74846e-07 1 110.926 21.2115)" fill="#A6A6A6" fill-opacity="0.5"/>
<rect width="2.15055" height="0.460455" rx="0.230228" transform="matrix(-1 -1.74846e-07 -1.74846e-07 1 110.465 23.6673)" fill="#A6A6A6" fill-opacity="0.5"/>
<rect width="3.07221" height="2.30227" rx="0.430476" transform="matrix(-1 -1.74846e-07 -1.74846e-07 1 122.236 21.2115)" fill="#A6A6A6" fill-opacity="0.5"/>
<rect width="2.15055" height="0.460455" rx="0.230228" transform="matrix(-1 -1.74846e-07 -1.74846e-07 1 121.776 23.6673)" fill="#A6A6A6" fill-opacity="0.5"/>
<rect width="3.07221" height="2.30227" rx="0.430476" transform="matrix(-1 -1.74846e-07 -1.74846e-07 1 127.891 21.2115)" fill="#61C3F2"/>
<rect width="2.15055" height="0.460455" rx="0.230228" transform="matrix(-1 -1.74846e-07 -1.74846e-07 1 127.431 23.6673)" fill="#61C3F2"/>
<rect width="3.07221" height="2.30227" rx="0.430476" transform="matrix(-1 -1.74846e-07 -1.74846e-07 1 133.546 21.2115)" fill="#A6A6A6" fill-opacity="0.5"/>
<rect width="2.15055" height="0.460455" rx="0.230228" transform="matrix(-1 -1.74846e-07 -1.74846e-07 1 133.086 23.6673)" fill="#A6A6A6" fill-opacity="0.5"/>
<rect width="3.07221" height="2.30227" rx="0.430476" transform="matrix(-1 -1.74846e-07 -1.74846e-07 1 139.202 21.2115)" fill="#61C3F2"/>
<rect width="2.15055" height="0.460455" rx="0.230228" transform="matrix(-1 -1.74846e-07 -1.74846e-07 1 138.741 23.6673)" fill="#61C3F2"/>
<rect width="3.07221" height="2.30227" rx="0.430476" transform="matrix(-1 -1.74846e-07 -1.74846e-07 1 9.13489 28.002)" fill="#A6A6A6" fill-opacity="0.5"/>
<rect width="2.15055" height="0.460455" rx="0.230228" transform="matrix(-1 -1.74846e-07 -1.74846e-07 1 8.67407 30.4578)" fill="#A6A6A6" fill-opacity="0.5"/>
<rect width="3.07221" height="2.30227" rx="0.430476" transform="matrix(-1 -1.74846e-07 -1.74846e-07 1 14.79 28.002)" fill="#61C3F2"/>
<rect width="2.15055" height="0.460455" rx="0.230228" transform="matrix(-1 -1.74846e-07 -1.74846e-07 1 14.3292 30.4578)" fill="#61C3F2"/>
<rect width="3.07221" height="2.30227" rx="0.430476" transform="matrix(-1 -1.74846e-07 -1.74846e-07 1 20.4451 28.002)" fill="#A6A6A6" fill-opacity="0.5"/>
<rect width="2.15055" height="0.460455" rx="0.230228" transform="matrix(-1 -1.74846e-07 -1.74846e-07 1 19.9843 30.4578)" fill="#A6A6A6" fill-opacity="0.5"/>
<rect width="3.07221" height="2.30227" rx="0.430476" transform="matrix(-1 -1.74846e-07 -1.74846e-07 1 26.1001 28.002)" fill="#A6A6A6" fill-opacity="0.5"/>
<rect width="2.15055" height="0.460455" rx="0.230228" transform="matrix(-1 -1.74846e-07 -1.74846e-07 1 25.6393 30.4578)" fill="#A6A6A6" fill-opacity="0.5"/>
<rect width="3.07221" height="2.30227" rx="0.430476" transform="matrix(-1 -1.74846e-07 -1.74846e-07 1 37.4103 28.002)" fill="#15D2BC"/>
<rect width="2.15055" height="0.460455" rx="0.230228" transform="matrix(-1 -1.74846e-07 -1.74846e-07 1 36.9495 30.4578)" fill="#15D2BC"/>
<rect width="3.07221" height="2.30227" rx="0.430476" transform="matrix(-1 -1.74846e-07 -1.74846e-07 1 43.0653 28.002)" fill="#15D2BC"/>
<rect width="2.15055" height="0.460455" rx="0.230228" transform="matrix(-1 -1.74846e-07 -1.74846e-07 1 42.6045 30.4578)" fill="#15D2BC"/>
<rect width="3.07221" height="2.30227" rx="0.430476" transform="matrix(-1 -1.74846e-07 -1.74846e-07 1 48.7205 28.002)" fill="#A6A6A6" fill-opacity="0.5"/>
<rect width="2.15055" height="0.460455" rx="0.230228" transform="matrix(-1 -1.74846e-07 -1.74846e-07 1 48.2596 30.4578)" fill="#A6A6A6" fill-opacity="0.5"/>
<rect width="3.07221" height="2.30227" rx="0.430476" transform="matrix(-1 -1.74846e-07 -1.74846e-07 1 54.3755 28.002)" fill="#A6A6A6" fill-opacity="0.5"/>
<rect width="2.15055" height="0.460455" rx="0.230228" transform="matrix(-1 -1.74846e-07 -1.74846e-07 1 53.9147 30.4578)" fill="#A6A6A6" fill-opacity="0.5"/>
<rect width="3.07221" height="2.30227" rx="0.430476" transform="matrix(-1 -1.74846e-07 -1.74846e-07 1 60.0305 28.002)" fill="#61C3F2"/>
<rect width="2.15055" height="0.460455" rx="0.230228" transform="matrix(-1 -1.74846e-07 -1.74846e-07 1 59.5697 30.4578)" fill="#61C3F2"/>
<rect width="3.07221" height="2.30227" rx="0.430476" transform="matrix(-1 -1.74846e-07 -1.74846e-07 1 65.6857 28.002)" fill="#61C3F2"/>
<rect width="2.15055" height="0.460455" rx="0.230228" transform="matrix(-1 -1.74846e-07 -1.74846e-07 1 65.2249 30.4578)" fill="#61C3F2"/>
<rect width="3.07221" height="2.30227" rx="0.430476" transform="matrix(-1 -1.74846e-07 -1.74846e-07 1 71.3407 28.002)" fill="#A6A6A6" fill-opacity="0.5"/>
<rect width="2.15055" height="0.460455" rx="0.230228" transform="matrix(-1 -1.74846e-07 -1.74846e-07 1 70.8799 30.4578)" fill="#A6A6A6" fill-opacity="0.5"/>
<rect width="3.07221" height="2.30227" rx="0.430476" transform="matrix(-1 -1.74846e-07 -1.74846e-07 1 76.9957 28.002)" fill="#A6A6A6" fill-opacity="0.5"/>
<rect width="2.15055" height="0.460455" rx="0.230228" transform="matrix(-1 -1.74846e-07 -1.74846e-07 1 76.5349 30.4578)" fill="#A6A6A6" fill-opacity="0.5"/>
<rect width="3.07221" height="2.30227" rx="0.430476" transform="matrix(-1 -1.74846e-07 -1.74846e-07 1 82.6509 28.002)" fill="#61C3F2"/>
<rect width="2.15055" height="0.460455" rx="0.230228" transform="matrix(-1 -1.74846e-07 -1.74846e-07 1 82.1901 30.4578)" fill="#61C3F2"/>
<rect width="3.07221" height="2.30227" rx="0.430476" transform="matrix(-1 -1.74846e-07 -1.74846e-07 1 88.3059 28.002)" fill="#61C3F2"/>
<rect width="2.15055" height="0.460455" rx="0.230228" transform="matrix(-1 -1.74846e-07 -1.74846e-07 1 87.8451 30.4578)" fill="#61C3F2"/>
<rect width="3.07221" height="2.30227" rx="0.430476" transform="matrix(-1 -1.74846e-07 -1.74846e-07 1 93.9609 28.002)" fill="#A6A6A6" fill-opacity="0.5"/>
<rect width="2.15055" height="0.460455" rx="0.230228" transform="matrix(-1 -1.74846e-07 -1.74846e-07 1 93.5001 30.4578)" fill="#A6A6A6" fill-opacity="0.5"/>
<rect width="3.07221" height="2.30227" rx="0.430476" transform="matrix(-1 -1.74846e-07 -1.74846e-07 1 99.6161 28.002)" fill="#A6A6A6" fill-opacity="0.5"/>
<rect width="2.15055" height="0.460455" rx="0.230228" transform="matrix(-1 -1.74846e-07 -1.74846e-07 1 99.1552 30.4578)" fill="#A6A6A6" fill-opacity="0.5"/>
<rect width="3.07221" height="2.30227" rx="0.430476" transform="matrix(-1 -1.74846e-07 -1.74846e-07 1 105.271 28.002)" fill="#15D2BC"/>
<rect width="2.15055" height="0.460455" rx="0.230228" transform="matrix(-1 -1.74846e-07 -1.74846e-07 1 104.81 30.4578)" fill="#15D2BC"/>
<rect width="3.07221" height="2.30227" rx="0.430476" transform="matrix(-1 -1.74846e-07 -1.74846e-07 1 110.926 28.002)" fill="#15D2BC"/>
<rect width="2.15055" height="0.460455" rx="0.230228" transform="matrix(-1 -1.74846e-07 -1.74846e-07 1 110.465 30.4578)" fill="#15D2BC"/>
<rect width="3.07221" height="2.30227" rx="0.430476" transform="matrix(-1 -1.74846e-07 -1.74846e-07 1 122.236 28.002)" fill="#A6A6A6" fill-opacity="0.5"/>
<rect width="2.15055" height="0.460455" rx="0.230228" transform="matrix(-1 -1.74846e-07 -1.74846e-07 1 121.776 30.4578)" fill="#A6A6A6" fill-opacity="0.5"/>
<rect width="3.07221" height="2.30227" rx="0.430476" transform="matrix(-1 -1.74846e-07 -1.74846e-07 1 127.891 28.002)" fill="#A6A6A6" fill-opacity="0.5"/>
<rect width="2.15055" height="0.460455" rx="0.230228" transform="matrix(-1 -1.74846e-07 -1.74846e-07 1 127.431 30.4578)" fill="#A6A6A6" fill-opacity="0.5"/>
<rect width="3.07221" height="2.30227" rx="0.430476" transform="matrix(-1 -1.74846e-07 -1.74846e-07 1 133.546 28.002)" fill="#61C3F2"/>
<rect width="2.15055" height="0.460455" rx="0.230228" transform="matrix(-1 -1.74846e-07 -1.74846e-07 1 133.086 30.4578)" fill="#61C3F2"/>
<rect width="3.07221" height="2.30227" rx="0.430476" transform="matrix(-1 -1.74846e-07 -1.74846e-07 1 139.202 28.002)" fill="#A6A6A6" fill-opacity="0.5"/>
<rect width="2.15055" height="0.460455" rx="0.230228" transform="matrix(-1 -1.74846e-07 -1.74846e-07 1 138.741 30.4578)" fill="#A6A6A6" fill-opacity="0.5"/>
<rect width="3.07221" height="2.30227" rx="0.430476" transform="matrix(-1 -1.74846e-07 -1.74846e-07 1 9.13489 34.7925)" fill="#A6A6A6" fill-opacity="0.5"/>
<rect width="2.15055" height="0.460455" rx="0.230228" transform="matrix(-1 -1.74846e-07 -1.74846e-07 1 8.67407 37.2483)" fill="#A6A6A6" fill-opacity="0.5"/>
<rect width="3.07221" height="2.30227" rx="0.430476" transform="matrix(-1 -1.74846e-07 -1.74846e-07 1 14.79 34.7925)" fill="#A6A6A6" fill-opacity="0.5"/>
<rect width="2.15055" height="0.460455" rx="0.230228" transform="matrix(-1 -1.74846e-07 -1.74846e-07 1 14.3292 37.2483)" fill="#A6A6A6" fill-opacity="0.5"/>
<rect width="3.07221" height="2.30227" rx="0.430476" transform="matrix(-1 -1.74846e-07 -1.74846e-07 1 20.4451 34.7925)" fill="#61C3F2"/>
<rect width="2.15055" height="0.460455" rx="0.230228" transform="matrix(-1 -1.74846e-07 -1.74846e-07 1 19.9843 37.2483)" fill="#61C3F2"/>
<rect width="3.07221" height="2.30227" rx="0.430476" transform="matrix(-1 -1.74846e-07 -1.74846e-07 1 26.1001 34.7925)" fill="#A6A6A6" fill-opacity="0.5"/>
<rect width="2.15055" height="0.460455" rx="0.230228" transform="matrix(-1 -1.74846e-07 -1.74846e-07 1 25.6393 37.2483)" fill="#A6A6A6" fill-opacity="0.5"/>
<rect width="3.07221" height="2.30227" rx="0.430476" transform="matrix(-1 -1.74846e-07 -1.74846e-07 1 37.4103 34.7925)" fill="#A6A6A6" fill-opacity="0.5"/>
<rect width="2.15055" height="0.460455" rx="0.230228" transform="matrix(-1 -1.74846e-07 -1.74846e-07 1 36.9495 37.2483)" fill="#A6A6A6" fill-opacity="0.5"/>
<rect width="3.07221" height="2.30227" rx="0.430476" transform="matrix(-1 -1.74846e-07 -1.74846e-07 1 43.0653 34.7925)" fill="#A6A6A6" fill-opacity="0.5"/>
<rect width="2.15055" height="0.460455" rx="0.230228" transform="matrix(-1 -1.74846e-07 -1.74846e-07 1 42.6045 37.2483)" fill="#A6A6A6" fill-opacity="0.5"/>
<rect width="3.07221" height="2.30227" rx="0.430476" transform="matrix(-1 -1.74846e-07 -1.74846e-07 1 48.7205 34.7925)" fill="#61C3F2"/>
<rect width="2.15055" height="0.460455" rx="0.230228" transform="matrix(-1 -1.74846e-07 -1.74846e-07 1 48.2596 37.2483)" fill="#61C3F2"/>
<rect width="3.07221" height="2.30227" rx="0.430476" transform="matrix(-1 -1.74846e-07 -1.74846e-07 1 54.3755 34.7925)" fill="#61C3F2"/>
<rect width="2.15055" height="0.460455" rx="0.230228" transform="matrix(-1 -1.74846e-07 -1.74846e-07 1 53.9147 37.2483)" fill="#61C3F2"/>
<rect width="3.07221" height="2.30227" rx="0.430476" transform="matrix(-1 -1.74846e-07 -1.74846e-07 1 60.0305 34.7925)" fill="#A6A6A6" fill-opacity="0.5"/>
<rect width="2.15055" height="0.460455" rx="0.230228" transform="matrix(-1 -1.74846e-07 -1.74846e-07 1 59.5697 37.2483)" fill="#A6A6A6" fill-opacity="0.5"/>
<rect width="3.07221" height="2.30227" rx="0.430476" transform="matrix(-1 -1.74846e-07 -1.74846e-07 1 65.6857 34.7925)" fill="#A6A6A6" fill-opacity="0.5"/>
<rect width="2.15055" height="0.460455" rx="0.230228" transform="matrix(-1 -1.74846e-07 -1.74846e-07 1 65.2249 37.2483)" fill="#A6A6A6" fill-opacity="0.5"/>
<rect width="3.07221" height="2.30227" rx="0.430476" transform="matrix(-1 -1.74846e-07 -1.74846e-07 1 71.3407 34.7925)" fill="#61C3F2"/>
<rect width="2.15055" height="0.460455" rx="0.230228" transform="matrix(-1 -1.74846e-07 -1.74846e-07 1 70.8799 37.2483)" fill="#61C3F2"/>
<rect width="3.07221" height="2.30227" rx="0.430476" transform="matrix(-1 -1.74846e-07 -1.74846e-07 1 76.9957 34.7925)" fill="#61C3F2"/>
<rect width="2.15055" height="0.460455" rx="0.230228" transform="matrix(-1 -1.74846e-07 -1.74846e-07 1 76.5349 37.2483)" fill="#61C3F2"/>
<rect width="3.07221" height="2.30227" rx="0.430476" transform="matrix(-1 -1.74846e-07 -1.74846e-07 1 82.6509 34.7925)" fill="#A6A6A6" fill-opacity="0.5"/>
<rect width="2.15055" height="0.460455" rx="0.230228" transform="matrix(-1 -1.74846e-07 -1.74846e-07 1 82.1901 37.2483)" fill="#A6A6A6" fill-opacity="0.5"/>
<rect width="3.07221" height="2.30227" rx="0.430476" transform="matrix(-1 -1.74846e-07 -1.74846e-07 1 88.3059 34.7925)" fill="#A6A6A6" fill-opacity="0.5"/>
<rect width="2.15055" height="0.460455" rx="0.230228" transform="matrix(-1 -1.74846e-07 -1.74846e-07 1 87.8451 37.2483)" fill="#A6A6A6" fill-opacity="0.5"/>
<rect width="3.07221" height="2.30227" rx="0.430476" transform="matrix(-1 -1.74846e-07 -1.74846e-07 1 93.9609 34.7925)" fill="#61C3F2"/>
<rect width="2.15055" height="0.460455" rx="0.230228" transform="matrix(-1 -1.74846e-07 -1.74846e-07 1 93.5001 37.2483)" fill="#61C3F2"/>
<rect width="3.07221" height="2.30227" rx="0.430476" transform="matrix(-1 -1.74846e-07 -1.74846e-07 1 99.6161 34.7925)" fill="#61C3F2"/>
<rect width="2.15055" height="0.460455" rx="0.230228" transform="matrix(-1 -1.74846e-07 -1.74846e-07 1 99.1552 37.2483)" fill="#61C3F2"/>
<rect width="3.07221" height="2.30227" rx="0.430476" transform="matrix(-1 -1.74846e-07 -1.74846e-07 1 105.271 34.7925)" fill="#A6A6A6" fill-opacity="0.5"/>
<rect width="2.15055" height="0.460455" rx="0.230228" transform="matrix(-1 -1.74846e-07 -1.74846e-07 1 104.81 37.2483)" fill="#A6A6A6" fill-opacity="0.5"/>
<rect width="3.07221" height="2.30227" rx="0.430476" transform="matrix(-1 -1.74846e-07 -1.74846e-07 1 110.926 34.7925)" fill="#A6A6A6" fill-opacity="0.5"/>
<rect width="2.15055" height="0.460455" rx="0.230228" transform="matrix(-1 -1.74846e-07 -1.74846e-07 1 110.465 37.2483)" fill="#A6A6A6" fill-opacity="0.5"/>
<rect width="3.07221" height="2.30227" rx="0.430476" transform="matrix(-1 -1.74846e-07 -1.74846e-07 1 122.236 34.7925)" fill="#A6A6A6" fill-opacity="0.5"/>
<rect width="2.15055" height="0.460455" rx="0.230228" transform="matrix(-1 -1.74846e-07 -1.74846e-07 1 121.776 37.2483)" fill="#A6A6A6" fill-opacity="0.5"/>
<rect width="3.07221" height="2.30227" rx="0.430476" transform="matrix(-1 -1.74846e-07 -1.74846e-07 1 127.891 34.7925)" fill="#61C3F2"/>
<rect width="2.15055" height="0.460455" rx="0.230228" transform="matrix(-1 -1.74846e-07 -1.74846e-07 1 127.431 37.2483)" fill="#61C3F2"/>
<rect width="3.07221" height="2.30227" rx="0.430476" transform="matrix(-1 -1.74846e-07 -1.74846e-07 1 133.546 34.7925)" fill="#A6A6A6" fill-opacity="0.5"/>
<rect width="2.15055" height="0.460455" rx="0.230228" transform="matrix(-1 -1.74846e-07 -1.74846e-07 1 133.086 37.2483)" fill="#A6A6A6" fill-opacity="0.5"/>
<rect width="3.07221" height="2.30227" rx="0.430476" transform="matrix(-1 -1.74846e-07 -1.74846e-07 1 139.202 34.7925)" fill="#A6A6A6" fill-opacity="0.5"/>
<rect width="2.15055" height="0.460455" rx="0.230228" transform="matrix(-1 -1.74846e-07 -1.74846e-07 1 138.741 37.2483)" fill="#A6A6A6" fill-opacity="0.5"/>
<rect width="3.07221" height="2.30227" rx="0.430476" transform="matrix(-1 -1.74846e-07 -1.74846e-07 1 3.47986 41.583)" fill="#61C3F2"/>
<rect width="2.15055" height="0.460455" rx="0.230228" transform="matrix(-1 -1.74846e-07 -1.74846e-07 1 3.01904 44.0388)" fill="#61C3F2"/>
<rect width="3.07221" height="2.30227" rx="0.430476" transform="matrix(-1 -1.74846e-07 -1.74846e-07 1 9.13489 41.583)" fill="#61C3F2"/>
<rect width="2.15055" height="0.460455" rx="0.230228" transform="matrix(-1 -1.74846e-07 -1.74846e-07 1 8.67407 44.0388)" fill="#61C3F2"/>
<rect width="3.07221" height="2.30227" rx="0.430476" transform="matrix(-1 -1.74846e-07 -1.74846e-07 1 14.79 41.583)" fill="#A6A6A6" fill-opacity="0.5"/>
<rect width="2.15055" height="0.460455" rx="0.230228" transform="matrix(-1 -1.74846e-07 -1.74846e-07 1 14.3292 44.0388)" fill="#A6A6A6" fill-opacity="0.5"/>
<rect width="3.07221" height="2.30227" rx="0.430476" transform="matrix(-1 -1.74846e-07 -1.74846e-07 1 20.4451 41.583)" fill="#A6A6A6" fill-opacity="0.5"/>
<rect width="2.15055" height="0.460455" rx="0.230228" transform="matrix(-1 -1.74846e-07 -1.74846e-07 1 19.9843 44.0388)" fill="#A6A6A6" fill-opacity="0.5"/>
<rect width="3.07221" height="2.30227" rx="0.430476" transform="matrix(-1 -1.74846e-07 -1.74846e-07 1 26.1001 41.583)" fill="#A6A6A6" fill-opacity="0.5"/>
<rect width="2.15055" height="0.460455" rx="0.230228" transform="matrix(-1 -1.74846e-07 -1.74846e-07 1 25.6393 44.0388)" fill="#A6A6A6" fill-opacity="0.5"/>
<rect width="3.07221" height="2.30227" rx="0.430476" transform="matrix(-1 -1.74846e-07 -1.74846e-07 1 37.4103 41.583)" fill="#E26CA5"/>
<rect width="2.15055" height="0.460455" rx="0.230228" transform="matrix(-1 -1.74846e-07 -1.74846e-07 1 36.9495 44.0388)" fill="#E26CA5"/>
<rect width="3.07221" height="2.30227" rx="0.430476" transform="matrix(-1 -1.74846e-07 -1.74846e-07 1 43.0653 41.583)" fill="#E26CA5"/>
<rect width="2.15055" height="0.460455" rx="0.230228" transform="matrix(-1 -1.74846e-07 -1.74846e-07 1 42.6045 44.0388)" fill="#E26CA5"/>
<rect width="3.07221" height="2.30227" rx="0.430476" transform="matrix(-1 -1.74846e-07 -1.74846e-07 1 48.7205 41.583)" fill="#A6A6A6" fill-opacity="0.5"/>
<rect width="2.15055" height="0.460455" rx="0.230228" transform="matrix(-1 -1.74846e-07 -1.74846e-07 1 48.2596 44.0388)" fill="#A6A6A6" fill-opacity="0.5"/>
<rect width="3.07221" height="2.30227" rx="0.430476" transform="matrix(-1 -1.74846e-07 -1.74846e-07 1 54.3755 41.583)" fill="#A6A6A6" fill-opacity="0.5"/>
<rect width="2.15055" height="0.460455" rx="0.230228" transform="matrix(-1 -1.74846e-07 -1.74846e-07 1 53.9147 44.0388)" fill="#A6A6A6" fill-opacity="0.5"/>
<rect width="3.07221" height="2.30227" rx="0.430476" transform="matrix(-1 -1.74846e-07 -1.74846e-07 1 60.0305 41.583)" fill="#61C3F2"/>
<rect width="2.15055" height="0.460455" rx="0.230228" transform="matrix(-1 -1.74846e-07 -1.74846e-07 1 59.5697 44.0388)" fill="#61C3F2"/>
<rect width="3.07221" height="2.30227" rx="0.430476" transform="matrix(-1 -1.74846e-07 -1.74846e-07 1 65.6857 41.583)" fill="#61C3F2"/>
<rect width="2.15055" height="0.460455" rx="0.230228" transform="matrix(-1 -1.74846e-07 -1.74846e-07 1 65.2249 44.0388)" fill="#61C3F2"/>
<rect width="3.07221" height="2.30227" rx="0.430476" transform="matrix(-1 -1.74846e-07 -1.74846e-07 1 71.3407 41.583)" fill="#A6A6A6" fill-opacity="0.5"/>
<rect width="2.15055" height="0.460455" rx="0.230228" transform="matrix(-1 -1.74846e-07 -1.74846e-07 1 70.8799 44.0388)" fill="#A6A6A6" fill-opacity="0.5"/>
<rect width="3.07221" height="2.30227" rx="0.430476" transform="matrix(-1 -1.74846e-07 -1.74846e-07 1 76.9957 41.583)" fill="#A6A6A6" fill-opacity="0.5"/>
<rect width="2.15055" height="0.460455" rx="0.230228" transform="matrix(-1 -1.74846e-07 -1.74846e-07 1 76.5349 44.0388)" fill="#A6A6A6" fill-opacity="0.5"/>
<rect width="3.07221" height="2.30227" rx="0.430476" transform="matrix(-1 -1.74846e-07 -1.74846e-07 1 82.6509 41.583)" fill="#61C3F2"/>
<rect width="2.15055" height="0.460455" rx="0.230228" transform="matrix(-1 -1.74846e-07 -1.74846e-07 1 82.1901 44.0388)" fill="#61C3F2"/>
<rect width="3.07221" height="2.30227" rx="0.430476" transform="matrix(-1 -1.74846e-07 -1.74846e-07 1 88.3059 41.583)" fill="#61C3F2"/>
<rect width="2.15055" height="0.460455" rx="0.230228" transform="matrix(-1 -1.74846e-07 -1.74846e-07 1 87.8451 44.0388)" fill="#61C3F2"/>
<rect width="3.07221" height="2.30227" rx="0.430476" transform="matrix(-1 -1.74846e-07 -1.74846e-07 1 93.9609 41.583)" fill="#A6A6A6" fill-opacity="0.5"/>
<rect width="2.15055" height="0.460455" rx="0.230228" transform="matrix(-1 -1.74846e-07 -1.74846e-07 1 93.5001 44.0388)" fill="#A6A6A6" fill-opacity="0.5"/>
<rect width="3.07221" height="2.30227" rx="0.430476" transform="matrix(-1 -1.74846e-07 -1.74846e-07 1 99.6161 41.583)" fill="#A6A6A6" fill-opacity="0.5"/>
<rect width="2.15055" height="0.460455" rx="0.230228" transform="matrix(-1 -1.74846e-07 -1.74846e-07 1 99.1552 44.0388)" fill="#A6A6A6" fill-opacity="0.5"/>
<rect width="3.07221" height="2.30227" rx="0.430476" transform="matrix(-1 -1.74846e-07 -1.74846e-07 1 105.271 41.583)" fill="#E26CA5"/>
<rect width="2.15055" height="0.460455" rx="0.230228" transform="matrix(-1 -1.74846e-07 -1.74846e-07 1 104.81 44.0388)" fill="#E26CA5"/>
<rect width="3.07221" height="2.30227" rx="0.430476" transform="matrix(-1 -1.74846e-07 -1.74846e-07 1 110.926 41.583)" fill="#E26CA5"/>
<rect width="2.15055" height="0.460455" rx="0.230228" transform="matrix(-1 -1.74846e-07 -1.74846e-07 1 110.465 44.0388)" fill="#E26CA5"/>
<rect width="3.07221" height="2.30227" rx="0.430476" transform="matrix(-1 -1.74846e-07 -1.74846e-07 1 122.236 41.583)" fill="#A6A6A6" fill-opacity="0.5"/>
<rect width="2.15055" height="0.460455" rx="0.230228" transform="matrix(-1 -1.74846e-07 -1.74846e-07 1 121.776 44.0388)" fill="#A6A6A6" fill-opacity="0.5"/>
<rect width="3.07221" height="2.30227" rx="0.430476" transform="matrix(-1 -1.74846e-07 -1.74846e-07 1 127.891 41.583)" fill="#A6A6A6" fill-opacity="0.5"/>
<rect width="2.15055" height="0.460455" rx="0.230228" transform="matrix(-1 -1.74846e-07 -1.74846e-07 1 127.431 44.0388)" fill="#A6A6A6" fill-opacity="0.5"/>
<rect width="3.07221" height="2.30227" rx="0.430476" transform="matrix(-1 -1.74846e-07 -1.74846e-07 1 133.546 41.583)" fill="#A6A6A6" fill-opacity="0.5"/>
<rect width="2.15055" height="0.460455" rx="0.230228" transform="matrix(-1 -1.74846e-07 -1.74846e-07 1 133.086 44.0388)" fill="#A6A6A6" fill-opacity="0.5"/>
<rect width="3.07221" height="2.30227" rx="0.430476" transform="matrix(-1 -1.74846e-07 -1.74846e-07 1 139.202 41.583)" fill="#61C3F2"/>
<rect width="2.15055" height="0.460455" rx="0.230228" transform="matrix(-1 -1.74846e-07 -1.74846e-07 1 138.741 44.0388)" fill="#61C3F2"/>
<rect width="3.07221" height="2.30227" rx="0.430476" transform="matrix(-1 -1.74846e-07 -1.74846e-07 1 144.857 41.583)" fill="#61C3F2"/>
<rect width="2.15055" height="0.460455" rx="0.230228" transform="matrix(-1 -1.74846e-07 -1.74846e-07 1 144.396 44.0388)" fill="#61C3F2"/>
<rect width="3.07221" height="2.30227" rx="0.430476" transform="matrix(-1 -1.74846e-07 -1.74846e-07 1 3.47986 48.3735)" fill="#A6A6A6" fill-opacity="0.5"/>
<rect width="2.15055" height="0.460455" rx="0.230228" transform="matrix(-1 -1.74846e-07 -1.74846e-07 1 3.01904 50.8293)" fill="#A6A6A6" fill-opacity="0.5"/>
<rect width="3.07221" height="2.30227" rx="0.430476" transform="matrix(-1 -1.74846e-07 -1.74846e-07 1 9.13489 48.3735)" fill="#A6A6A6" fill-opacity="0.5"/>
<rect width="2.15055" height="0.460455" rx="0.230228" transform="matrix(-1 -1.74846e-07 -1.74846e-07 1 8.67407 50.8293)" fill="#A6A6A6" fill-opacity="0.5"/>
<rect width="3.07221" height="2.30227" rx="0.430476" transform="matrix(-1 -1.74846e-07 -1.74846e-07 1 14.79 48.3735)" fill="#61C3F2"/>
<rect width="2.15055" height="0.460455" rx="0.230228" transform="matrix(-1 -1.74846e-07 -1.74846e-07 1 14.3292 50.8293)" fill="#61C3F2"/>
<rect width="3.07221" height="2.30227" rx="0.430476" transform="matrix(-1 -1.74846e-07 -1.74846e-07 1 20.4451 48.3735)" fill="#61C3F2"/>
<rect width="2.15055" height="0.460455" rx="0.230228" transform="matrix(-1 -1.74846e-07 -1.74846e-07 1 19.9843 50.8293)" fill="#61C3F2"/>
<rect width="3.07221" height="2.30227" rx="0.430476" transform="matrix(-1 -1.74846e-07 -1.74846e-07 1 26.1001 48.3735)" fill="#A6A6A6" fill-opacity="0.5"/>
<rect width="2.15055" height="0.460455" rx="0.230228" transform="matrix(-1 -1.74846e-07 -1.74846e-07 1 25.6393 50.8293)" fill="#A6A6A6" fill-opacity="0.5"/>
<rect width="3.07221" height="2.30227" rx="0.430476" transform="matrix(-1 -1.74846e-07 -1.74846e-07 1 37.4103 48.3736)" fill="#A6A6A6" fill-opacity="0.5"/>
<rect width="2.15055" height="0.460455" rx="0.230228" transform="matrix(-1 -1.74846e-07 -1.74846e-07 1 36.9495 50.8293)" fill="#A6A6A6" fill-opacity="0.5"/>
<rect width="3.07221" height="2.30227" rx="0.430476" transform="matrix(-1 -1.74846e-07 -1.74846e-07 1 43.0653 48.3736)" fill="#A6A6A6" fill-opacity="0.5"/>
<rect width="2.15055" height="0.460455" rx="0.230228" transform="matrix(-1 -1.74846e-07 -1.74846e-07 1 42.6045 50.8293)" fill="#A6A6A6" fill-opacity="0.5"/>
<rect width="3.07221" height="2.30227" rx="0.430476" transform="matrix(-1 -1.74846e-07 -1.74846e-07 1 48.7205 48.3736)" fill="#61C3F2"/>
<rect width="2.15055" height="0.460455" rx="0.230228" transform="matrix(-1 -1.74846e-07 -1.74846e-07 1 48.2596 50.8293)" fill="#61C3F2"/>
<rect width="3.07221" height="2.30227" rx="0.430476" transform="matrix(-1 -1.74846e-07 -1.74846e-07 1 54.3755 48.3736)" fill="#61C3F2"/>
<rect width="2.15055" height="0.460455" rx="0.230228" transform="matrix(-1 -1.74846e-07 -1.74846e-07 1 53.9147 50.8293)" fill="#61C3F2"/>
<rect width="3.07221" height="2.30227" rx="0.430476" transform="matrix(-1 -1.74846e-07 -1.74846e-07 1 60.0305 48.3736)" fill="#A6A6A6" fill-opacity="0.5"/>
<rect width="2.15055" height="0.460455" rx="0.230228" transform="matrix(-1 -1.74846e-07 -1.74846e-07 1 59.5697 50.8293)" fill="#A6A6A6" fill-opacity="0.5"/>
<rect width="3.07221" height="2.30227" rx="0.430476" transform="matrix(-1 -1.74846e-07 -1.74846e-07 1 65.6857 48.3736)" fill="#A6A6A6" fill-opacity="0.5"/>
<rect width="2.15055" height="0.460455" rx="0.230228" transform="matrix(-1 -1.74846e-07 -1.74846e-07 1 65.2249 50.8293)" fill="#A6A6A6" fill-opacity="0.5"/>
<rect width="3.07221" height="2.30227" rx="0.430476" transform="matrix(-1 -1.74846e-07 -1.74846e-07 1 71.3407 48.3736)" fill="#564CA3"/>
<rect width="2.15055" height="0.460455" rx="0.230228" transform="matrix(-1 -1.74846e-07 -1.74846e-07 1 70.8799 50.8293)" fill="#564CA3"/>
<rect width="3.07221" height="2.30227" rx="0.430476" transform="matrix(-1 -1.74846e-07 -1.74846e-07 1 76.9957 48.3736)" fill="#564CA3"/>
<rect width="2.15055" height="0.460455" rx="0.230228" transform="matrix(-1 -1.74846e-07 -1.74846e-07 1 76.5349 50.8293)" fill="#564CA3"/>
<rect width="3.07221" height="2.30227" rx="0.430476" transform="matrix(-1 -1.74846e-07 -1.74846e-07 1 82.6509 48.3736)" fill="#A6A6A6" fill-opacity="0.5"/>
<rect width="2.15055" height="0.460455" rx="0.230228" transform="matrix(-1 -1.74846e-07 -1.74846e-07 1 82.1901 50.8293)" fill="#A6A6A6" fill-opacity="0.5"/>
<rect width="3.07221" height="2.30227" rx="0.430476" transform="matrix(-1 -1.74846e-07 -1.74846e-07 1 88.3059 48.3736)" fill="#A6A6A6" fill-opacity="0.5"/>
<rect width="2.15055" height="0.460455" rx="0.230228" transform="matrix(-1 -1.74846e-07 -1.74846e-07 1 87.8451 50.8293)" fill="#A6A6A6" fill-opacity="0.5"/>
<rect width="3.07221" height="2.30227" rx="0.430476" transform="matrix(-1 -1.74846e-07 -1.74846e-07 1 93.9609 48.3736)" fill="#61C3F2"/>
<rect width="2.15055" height="0.460455" rx="0.230228" transform="matrix(-1 -1.74846e-07 -1.74846e-07 1 93.5001 50.8293)" fill="#61C3F2"/>
<rect width="3.07221" height="2.30227" rx="0.430476" transform="matrix(-1 -1.74846e-07 -1.74846e-07 1 99.6161 48.3736)" fill="#61C3F2"/>
<rect width="2.15055" height="0.460455" rx="0.230228" transform="matrix(-1 -1.74846e-07 -1.74846e-07 1 99.1552 50.8293)" fill="#61C3F2"/>
<rect width="3.07221" height="2.30227" rx="0.430476" transform="matrix(-1 -1.74846e-07 -1.74846e-07 1 105.271 48.3736)" fill="#A6A6A6" fill-opacity="0.5"/>
<rect width="2.15055" height="0.460455" rx="0.230228" transform="matrix(-1 -1.74846e-07 -1.74846e-07 1 104.81 50.8293)" fill="#A6A6A6" fill-opacity="0.5"/>
<rect width="3.07221" height="2.30227" rx="0.430476" transform="matrix(-1 -1.74846e-07 -1.74846e-07 1 110.926 48.3736)" fill="#A6A6A6" fill-opacity="0.5"/>
<rect width="2.15055" height="0.460455" rx="0.230228" transform="matrix(-1 -1.74846e-07 -1.74846e-07 1 110.465 50.8293)" fill="#A6A6A6" fill-opacity="0.5"/>
<rect width="3.07221" height="2.30227" rx="0.430476" transform="matrix(-1 -1.74846e-07 -1.74846e-07 1 122.236 48.3736)" fill="#A6A6A6" fill-opacity="0.5"/>
<rect width="2.15055" height="0.460455" rx="0.230228" transform="matrix(-1 -1.74846e-07 -1.74846e-07 1 121.776 50.8293)" fill="#A6A6A6" fill-opacity="0.5"/>
<rect width="3.07221" height="2.30227" rx="0.430476" transform="matrix(-1 -1.74846e-07 -1.74846e-07 1 127.891 48.3736)" fill="#61C3F2"/>
<rect width="2.15055" height="0.460455" rx="0.230228" transform="matrix(-1 -1.74846e-07 -1.74846e-07 1 127.431 50.8293)" fill="#61C3F2"/>
<rect width="3.07221" height="2.30227" rx="0.430476" transform="matrix(-1 -1.74846e-07 -1.74846e-07 1 133.546 48.3736)" fill="#61C3F2"/>
<rect width="2.15055" height="0.460455" rx="0.230228" transform="matrix(-1 -1.74846e-07 -1.74846e-07 1 133.086 50.8293)" fill="#61C3F2"/>
<rect width="3.07221" height="2.30227" rx="0.430476" transform="matrix(-1 -1.74846e-07 -1.74846e-07 1 139.202 48.3736)" fill="#A6A6A6" fill-opacity="0.5"/>
<rect width="2.15055" height="0.460455" rx="0.230228" transform="matrix(-1 -1.74846e-07 -1.74846e-07 1 138.741 50.8293)" fill="#A6A6A6" fill-opacity="0.5"/>
<rect width="3.07221" height="2.30227" rx="0.430476" transform="matrix(-1 -1.74846e-07 -1.74846e-07 1 144.857 48.3736)" fill="#A6A6A6" fill-opacity="0.5"/>
<rect width="2.15055" height="0.460455" rx="0.230228" transform="matrix(-1 -1.74846e-07 -1.74846e-07 1 144.396 50.8293)" fill="#A6A6A6" fill-opacity="0.5"/>
<rect width="3.07221" height="2.30227" rx="0.430476" transform="matrix(-1 -1.74846e-07 -1.74846e-07 1 3.47986 55.1641)" fill="#61C3F2"/>
<rect width="2.15055" height="0.460455" rx="0.230228" transform="matrix(-1 -1.74846e-07 -1.74846e-07 1 3.01904 57.6198)" fill="#61C3F2"/>
<rect width="3.07221" height="2.30227" rx="0.430476" transform="matrix(-1 -1.74846e-07 -1.74846e-07 1 9.13489 55.1641)" fill="#61C3F2"/>
<rect width="2.15055" height="0.460455" rx="0.230228" transform="matrix(-1 -1.74846e-07 -1.74846e-07 1 8.67407 57.6198)" fill="#61C3F2"/>
<rect width="3.07221" height="2.30227" rx="0.430476" transform="matrix(-1 -1.74846e-07 -1.74846e-07 1 14.79 55.1641)" fill="#A6A6A6" fill-opacity="0.5"/>
<rect width="2.15055" height="0.460455" rx="0.230228" transform="matrix(-1 -1.74846e-07 -1.74846e-07 1 14.3292 57.6198)" fill="#A6A6A6" fill-opacity="0.5"/>
<rect width="3.07221" height="2.30227" rx="0.430476" transform="matrix(-1 -1.74846e-07 -1.74846e-07 1 20.4451 55.1641)" fill="#A6A6A6" fill-opacity="0.5"/>
<rect width="2.15055" height="0.460455" rx="0.230228" transform="matrix(-1 -1.74846e-07 -1.74846e-07 1 19.9843 57.6198)" fill="#A6A6A6" fill-opacity="0.5"/>
<rect width="3.07221" height="2.30227" rx="0.430476" transform="matrix(-1 -1.74846e-07 -1.74846e-07 1 26.1001 55.1641)" fill="#A6A6A6" fill-opacity="0.5"/>
<rect width="2.15055" height="0.460455" rx="0.230228" transform="matrix(-1 -1.74846e-07 -1.74846e-07 1 25.6393 57.6198)" fill="#A6A6A6" fill-opacity="0.5"/>
<rect width="3.07221" height="2.30227" rx="0.430476" transform="matrix(-1 -1.74846e-07 -1.74846e-07 1 37.4103 55.1641)" fill="#15D2BC"/>
<rect width="2.15055" height="0.460455" rx="0.230228" transform="matrix(-1 -1.74846e-07 -1.74846e-07 1 36.9495 57.6198)" fill="#15D2BC"/>
<rect width="3.07221" height="2.30227" rx="0.430476" transform="matrix(-1 -1.74846e-07 -1.74846e-07 1 43.0653 55.1641)" fill="#15D2BC"/>
<rect width="2.15055" height="0.460455" rx="0.230228" transform="matrix(-1 -1.74846e-07 -1.74846e-07 1 42.6045 57.6198)" fill="#15D2BC"/>
<rect width="3.07221" height="2.30227" rx="0.430476" transform="matrix(-1 -1.74846e-07 -1.74846e-07 1 48.7205 55.1641)" fill="#A6A6A6" fill-opacity="0.5"/>
<rect width="2.15055" height="0.460455" rx="0.230228" transform="matrix(-1 -1.74846e-07 -1.74846e-07 1 48.2596 57.6198)" fill="#A6A6A6" fill-opacity="0.5"/>
<rect width="3.07221" height="2.30227" rx="0.430476" transform="matrix(-1 -1.74846e-07 -1.74846e-07 1 54.3755 55.1641)" fill="#A6A6A6" fill-opacity="0.5"/>
<rect width="2.15055" height="0.460455" rx="0.230228" transform="matrix(-1 -1.74846e-07 -1.74846e-07 1 53.9147 57.6198)" fill="#A6A6A6" fill-opacity="0.5"/>
<rect width="3.07221" height="2.30227" rx="0.430476" transform="matrix(-1 -1.74846e-07 -1.74846e-07 1 60.0305 55.1641)" fill="#61C3F2"/>
<rect width="2.15055" height="0.460455" rx="0.230228" transform="matrix(-1 -1.74846e-07 -1.74846e-07 1 59.5697 57.6198)" fill="#61C3F2"/>
<rect width="3.07221" height="2.30227" rx="0.430476" transform="matrix(-1 -1.74846e-07 -1.74846e-07 1 65.6857 55.1641)" fill="#61C3F2"/>
<rect width="2.15055" height="0.460455" rx="0.230228" transform="matrix(-1 -1.74846e-07 -1.74846e-07 1 65.2249 57.6198)" fill="#61C3F2"/>
<rect width="3.07221" height="2.30227" rx="0.430476" transform="matrix(-1 -1.74846e-07 -1.74846e-07 1 71.3407 55.1641)" fill="#A6A6A6" fill-opacity="0.5"/>
<rect width="2.15055" height="0.460455" rx="0.230228" transform="matrix(-1 -1.74846e-07 -1.74846e-07 1 70.8799 57.6198)" fill="#A6A6A6" fill-opacity="0.5"/>
<rect width="3.07221" height="2.30227" rx="0.430476" transform="matrix(-1 -1.74846e-07 -1.74846e-07 1 76.9957 55.1641)" fill="#A6A6A6" fill-opacity="0.5"/>
<rect width="2.15055" height="0.460455" rx="0.230228" transform="matrix(-1 -1.74846e-07 -1.74846e-07 1 76.5349 57.6198)" fill="#A6A6A6" fill-opacity="0.5"/>
<rect width="3.07221" height="2.30227" rx="0.430476" transform="matrix(-1 -1.74846e-07 -1.74846e-07 1 82.6509 55.1641)" fill="#61C3F2"/>
<rect width="2.15055" height="0.460455" rx="0.230228" transform="matrix(-1 -1.74846e-07 -1.74846e-07 1 82.1901 57.6198)" fill="#61C3F2"/>
<rect width="3.07221" height="2.30227" rx="0.430476" transform="matrix(-1 -1.74846e-07 -1.74846e-07 1 88.3059 55.1641)" fill="#61C3F2"/>
<rect width="2.15055" height="0.460455" rx="0.230228" transform="matrix(-1 -1.74846e-07 -1.74846e-07 1 87.8451 57.6198)" fill="#61C3F2"/>
<rect width="3.07221" height="2.30227" rx="0.430476" transform="matrix(-1 -1.74846e-07 -1.74846e-07 1 93.9609 55.1641)" fill="#A6A6A6" fill-opacity="0.5"/>
<rect width="2.15055" height="0.460455" rx="0.230228" transform="matrix(-1 -1.74846e-07 -1.74846e-07 1 93.5001 57.6198)" fill="#A6A6A6" fill-opacity="0.5"/>
<rect width="3.07221" height="2.30227" rx="0.430476" transform="matrix(-1 -1.74846e-07 -1.74846e-07 1 99.6161 55.1641)" fill="#A6A6A6" fill-opacity="0.5"/>
<rect width="2.15055" height="0.460455" rx="0.230228" transform="matrix(-1 -1.74846e-07 -1.74846e-07 1 99.1552 57.6198)" fill="#A6A6A6" fill-opacity="0.5"/>
<rect width="3.07221" height="2.30227" rx="0.430476" transform="matrix(-1 -1.74846e-07 -1.74846e-07 1 105.271 55.1641)" fill="#15D2BC"/>
<rect width="2.15055" height="0.460455" rx="0.230228" transform="matrix(-1 -1.74846e-07 -1.74846e-07 1 104.81 57.6198)" fill="#15D2BC"/>
<rect width="3.07221" height="2.30227" rx="0.430476" transform="matrix(-1 -1.74846e-07 -1.74846e-07 1 110.926 55.1641)" fill="#15D2BC"/>
<rect width="2.15055" height="0.460455" rx="0.230228" transform="matrix(-1 -1.74846e-07 -1.74846e-07 1 110.465 57.6198)" fill="#15D2BC"/>
<rect width="3.07221" height="2.30227" rx="0.430476" transform="matrix(-1 -1.74846e-07 -1.74846e-07 1 122.236 55.1641)" fill="#A6A6A6" fill-opacity="0.5"/>
<rect width="2.15055" height="0.460455" rx="0.230228" transform="matrix(-1 -1.74846e-07 -1.74846e-07 1 121.776 57.6198)" fill="#A6A6A6" fill-opacity="0.5"/>
<rect width="3.07221" height="2.30227" rx="0.430476" transform="matrix(-1 -1.74846e-07 -1.74846e-07 1 127.891 55.1641)" fill="#A6A6A6" fill-opacity="0.5"/>
<rect width="2.15055" height="0.460455" rx="0.230228" transform="matrix(-1 -1.74846e-07 -1.74846e-07 1 127.431 57.6198)" fill="#A6A6A6" fill-opacity="0.5"/>
<rect width="3.07221" height="2.30227" rx="0.430476" transform="matrix(-1 -1.74846e-07 -1.74846e-07 1 133.546 55.1641)" fill="#A6A6A6" fill-opacity="0.5"/>
<rect width="2.15055" height="0.460455" rx="0.230228" transform="matrix(-1 -1.74846e-07 -1.74846e-07 1 133.086 57.6198)" fill="#A6A6A6" fill-opacity="0.5"/>
<rect width="3.07221" height="2.30227" rx="0.430476" transform="matrix(-1 -1.74846e-07 -1.74846e-07 1 139.202 55.1641)" fill="#61C3F2"/>
<rect width="2.15055" height="0.460455" rx="0.230228" transform="matrix(-1 -1.74846e-07 -1.74846e-07 1 138.741 57.6198)" fill="#61C3F2"/>
<rect width="3.07221" height="2.30227" rx="0.430476" transform="matrix(-1 -1.74846e-07 -1.74846e-07 1 144.857 55.1641)" fill="#61C3F2"/>
<rect width="2.15055" height="0.460455" rx="0.230228" transform="matrix(-1 -1.74846e-07 -1.74846e-07 1 144.396 57.6198)" fill="#61C3F2"/>
<rect width="3.07221" height="2.30227" rx="0.430476" transform="matrix(-1 -1.74846e-07 -1.74846e-07 1 3.47986 61.9546)" fill="#A6A6A6" fill-opacity="0.5"/>
<rect width="2.15055" height="0.460455" rx="0.230228" transform="matrix(-1 -1.74846e-07 -1.74846e-07 1 3.01904 64.4103)" fill="#A6A6A6" fill-opacity="0.5"/>
<rect width="3.07221" height="2.30227" rx="0.430476" transform="matrix(-1 -1.74846e-07 -1.74846e-07 1 9.13489 61.9546)" fill="#A6A6A6" fill-opacity="0.5"/>
<rect width="2.15055" height="0.460455" rx="0.230228" transform="matrix(-1 -1.74846e-07 -1.74846e-07 1 8.67407 64.4103)" fill="#A6A6A6" fill-opacity="0.5"/>
<rect width="3.07221" height="2.30227" rx="0.430476" transform="matrix(-1 -1.74846e-07 -1.74846e-07 1 14.79 61.9546)" fill="#61C3F2"/>
<rect width="2.15055" height="0.460455" rx="0.230228" transform="matrix(-1 -1.74846e-07 -1.74846e-07 1 14.3292 64.4103)" fill="#61C3F2"/>
<rect width="3.07221" height="2.30227" rx="0.430476" transform="matrix(-1 -1.74846e-07 -1.74846e-07 1 20.4451 61.9546)" fill="#61C3F2"/>
<rect width="2.15055" height="0.460455" rx="0.230228" transform="matrix(-1 -1.74846e-07 -1.74846e-07 1 19.9843 64.4103)" fill="#61C3F2"/>
<rect width="3.07221" height="2.30227" rx="0.430476" transform="matrix(-1 -1.74846e-07 -1.74846e-07 1 26.1001 61.9546)" fill="#A6A6A6" fill-opacity="0.5"/>
<rect width="2.15055" height="0.460455" rx="0.230228" transform="matrix(-1 -1.74846e-07 -1.74846e-07 1 25.6393 64.4103)" fill="#A6A6A6" fill-opacity="0.5"/>
<rect width="3.07221" height="2.30227" rx="0.430476" transform="matrix(-1 -1.74846e-07 -1.74846e-07 1 37.4103 61.9546)" fill="#A6A6A6" fill-opacity="0.5"/>
<rect width="2.15055" height="0.460455" rx="0.230228" transform="matrix(-1 -1.74846e-07 -1.74846e-07 1 36.9495 64.4103)" fill="#A6A6A6" fill-opacity="0.5"/>
<rect width="3.07221" height="2.30227" rx="0.430476" transform="matrix(-1 -1.74846e-07 -1.74846e-07 1 43.0653 61.9546)" fill="#A6A6A6" fill-opacity="0.5"/>
<rect width="2.15055" height="0.460455" rx="0.230228" transform="matrix(-1 -1.74846e-07 -1.74846e-07 1 42.6045 64.4103)" fill="#A6A6A6" fill-opacity="0.5"/>
<rect width="3.07221" height="2.30227" rx="0.430476" transform="matrix(-1 -1.74846e-07 -1.74846e-07 1 48.7205 61.9546)" fill="#61C3F2"/>
<rect width="2.15055" height="0.460455" rx="0.230228" transform="matrix(-1 -1.74846e-07 -1.74846e-07 1 48.2596 64.4103)" fill="#61C3F2"/>
<rect width="3.07221" height="2.30227" rx="0.430476" transform="matrix(-1 -1.74846e-07 -1.74846e-07 1 54.3755 61.9546)" fill="#61C3F2"/>
<rect width="2.15055" height="0.460455" rx="0.230228" transform="matrix(-1 -1.74846e-07 -1.74846e-07 1 53.9147 64.4103)" fill="#61C3F2"/>
<rect width="3.07221" height="2.30227" rx="0.430476" transform="matrix(-1 -1.74846e-07 -1.74846e-07 1 60.0305 61.9546)" fill="#A6A6A6" fill-opacity="0.5"/>
<rect width="2.15055" height="0.460455" rx="0.230228" transform="matrix(-1 -1.74846e-07 -1.74846e-07 1 59.5697 64.4103)" fill="#A6A6A6" fill-opacity="0.5"/>
<rect width="3.07221" height="2.30227" rx="0.430476" transform="matrix(-1 -1.74846e-07 -1.74846e-07 1 65.6857 61.9546)" fill="#A6A6A6" fill-opacity="0.5"/>
<rect width="2.15055" height="0.460455" rx="0.230228" transform="matrix(-1 -1.74846e-07 -1.74846e-07 1 65.2249 64.4103)" fill="#A6A6A6" fill-opacity="0.5"/>
<rect width="3.07221" height="2.30227" rx="0.430476" transform="matrix(-1 -1.74846e-07 -1.74846e-07 1 71.3407 61.9546)" fill="#61C3F2"/>
<rect width="2.15055" height="0.460455" rx="0.230228" transform="matrix(-1 -1.74846e-07 -1.74846e-07 1 70.8799 64.4103)" fill="#61C3F2"/>
<rect width="3.07221" height="2.30227" rx="0.430476" transform="matrix(-1 -1.74846e-07 -1.74846e-07 1 76.9957 61.9546)" fill="#61C3F2"/>
<rect width="2.15055" height="0.460455" rx="0.230228" transform="matrix(-1 -1.74846e-07 -1.74846e-07 1 76.5349 64.4103)" fill="#61C3F2"/>
<rect width="3.07221" height="2.30227" rx="0.430476" transform="matrix(-1 -1.74846e-07 -1.74846e-07 1 82.6509 61.9546)" fill="#A6A6A6" fill-opacity="0.5"/>
<rect width="2.15055" height="0.460455" rx="0.230228" transform="matrix(-1 -1.74846e-07 -1.74846e-07 1 82.1901 64.4103)" fill="#A6A6A6" fill-opacity="0.5"/>
<rect width="3.07221" height="2.30227" rx="0.430476" transform="matrix(-1 -1.74846e-07 -1.74846e-07 1 88.3059 61.9546)" fill="#A6A6A6" fill-opacity="0.5"/>
<rect width="2.15055" height="0.460455" rx="0.230228" transform="matrix(-1 -1.74846e-07 -1.74846e-07 1 87.8451 64.4103)" fill="#A6A6A6" fill-opacity="0.5"/>
<rect width="3.07221" height="2.30227" rx="0.430476" transform="matrix(-1 -1.74846e-07 -1.74846e-07 1 93.9609 61.9546)" fill="#61C3F2"/>
<rect width="2.15055" height="0.460455" rx="0.230228" transform="matrix(-1 -1.74846e-07 -1.74846e-07 1 93.5001 64.4103)" fill="#61C3F2"/>
<rect width="3.07221" height="2.30227" rx="0.430476" transform="matrix(-1 -1.74846e-07 -1.74846e-07 1 99.6161 61.9546)" fill="#61C3F2"/>
<rect width="2.15055" height="0.460455" rx="0.230228" transform="matrix(-1 -1.74846e-07 -1.74846e-07 1 99.1552 64.4103)" fill="#61C3F2"/>
<rect width="3.07221" height="2.30227" rx="0.430476" transform="matrix(-1 -1.74846e-07 -1.74846e-07 1 105.271 61.9546)" fill="#A6A6A6" fill-opacity="0.5"/>
<rect width="2.15055" height="0.460455" rx="0.230228" transform="matrix(-1 -1.74846e-07 -1.74846e-07 1 104.81 64.4103)" fill="#A6A6A6" fill-opacity="0.5"/>
<rect width="3.07221" height="2.30227" rx="0.430476" transform="matrix(-1 -1.74846e-07 -1.74846e-07 1 110.926 61.9546)" fill="#A6A6A6" fill-opacity="0.5"/>
<rect width="2.15055" height="0.460455" rx="0.230228" transform="matrix(-1 -1.74846e-07 -1.74846e-07 1 110.465 64.4103)" fill="#A6A6A6" fill-opacity="0.5"/>
<rect width="3.07221" height="2.30227" rx="0.430476" transform="matrix(-1 -1.74846e-07 -1.74846e-07 1 122.236 61.9546)" fill="#A6A6A6" fill-opacity="0.5"/>
<rect width="2.15055" height="0.460455" rx="0.230228" transform="matrix(-1 -1.74846e-07 -1.74846e-07 1 121.776 64.4103)" fill="#A6A6A6" fill-opacity="0.5"/>
<rect width="3.07221" height="2.30227" rx="0.430476" transform="matrix(-1 -1.74846e-07 -1.74846e-07 1 127.891 61.9546)" fill="#61C3F2"/>
<rect width="2.15055" height="0.460455" rx="0.230228" transform="matrix(-1 -1.74846e-07 -1.74846e-07 1 127.431 64.4103)" fill="#61C3F2"/>
<rect width="3.07221" height="2.30227" rx="0.430476" transform="matrix(-1 -1.74846e-07 -1.74846e-07 1 133.546 61.9546)" fill="#61C3F2"/>
<rect width="2.15055" height="0.460455" rx="0.230228" transform="matrix(-1 -1.74846e-07 -1.74846e-07 1 133.086 64.4103)" fill="#61C3F2"/>
<rect width="3.07221" height="2.30227" rx="0.430476" transform="matrix(-1 -1.74846e-07 -1.74846e-07 1 139.202 61.9546)" fill="#A6A6A6" fill-opacity="0.5"/>
<rect width="2.15055" height="0.460455" rx="0.230228" transform="matrix(-1 -1.74846e-07 -1.74846e-07 1 138.741 64.4103)" fill="#A6A6A6" fill-opacity="0.5"/>
<rect width="3.07221" height="2.30227" rx="0.430476" transform="matrix(-1 -1.74846e-07 -1.74846e-07 1 144.857 61.9546)" fill="#A6A6A6" fill-opacity="0.5"/>
<rect width="2.15055" height="0.460455" rx="0.230228" transform="matrix(-1 -1.74846e-07 -1.74846e-07 1 144.396 64.4103)" fill="#A6A6A6" fill-opacity="0.5"/>
<rect width="3.07221" height="2.30227" rx="0.430476" transform="matrix(-1 -1.74846e-07 -1.74846e-07 1 3.47986 68.7451)" fill="#61C3F2"/>
<rect width="2.15055" height="0.460455" rx="0.230228" transform="matrix(-1 -1.74846e-07 -1.74846e-07 1 3.01904 71.2008)" fill="#61C3F2"/>
<rect width="3.07221" height="2.30227" rx="0.430476" transform="matrix(-1 -1.74846e-07 -1.74846e-07 1 9.13489 68.7451)" fill="#61C3F2"/>
<rect width="2.15055" height="0.460455" rx="0.230228" transform="matrix(-1 -1.74846e-07 -1.74846e-07 1 8.67407 71.2008)" fill="#61C3F2"/>
<rect width="3.07221" height="2.30227" rx="0.430476" transform="matrix(-1 -1.74846e-07 -1.74846e-07 1 14.79 68.7451)" fill="#A6A6A6" fill-opacity="0.5"/>
<rect width="2.15055" height="0.460455" rx="0.230228" transform="matrix(-1 -1.74846e-07 -1.74846e-07 1 14.3292 71.2008)" fill="#A6A6A6" fill-opacity="0.5"/>
<rect width="3.07221" height="2.30227" rx="0.430476" transform="matrix(-1 -1.74846e-07 -1.74846e-07 1 20.4451 68.7451)" fill="#A6A6A6" fill-opacity="0.5"/>
<rect width="2.15055" height="0.460455" rx="0.230228" transform="matrix(-1 -1.74846e-07 -1.74846e-07 1 19.9843 71.2008)" fill="#A6A6A6" fill-opacity="0.5"/>
<rect width="3.07221" height="2.30227" rx="0.430476" transform="matrix(-1 -1.74846e-07 -1.74846e-07 1 26.1001 68.7451)" fill="#A6A6A6" fill-opacity="0.5"/>
<rect width="2.15055" height="0.460455" rx="0.230228" transform="matrix(-1 -1.74846e-07 -1.74846e-07 1 25.6393 71.2008)" fill="#A6A6A6" fill-opacity="0.5"/>
<rect width="3.07221" height="2.30227" rx="0.430476" transform="matrix(-1 -1.74846e-07 -1.74846e-07 1 37.4103 68.7451)" fill="#61C3F2"/>
<rect width="2.15055" height="0.460455" rx="0.230228" transform="matrix(-1 -1.74846e-07 -1.74846e-07 1 36.9495 71.2008)" fill="#61C3F2"/>
<rect width="3.07221" height="2.30227" rx="0.430476" transform="matrix(-1 -1.74846e-07 -1.74846e-07 1 43.0653 68.7451)" fill="#61C3F2"/>
<rect width="2.15055" height="0.460455" rx="0.230228" transform="matrix(-1 -1.74846e-07 -1.74846e-07 1 42.6045 71.2008)" fill="#61C3F2"/>
<rect width="3.07221" height="2.30227" rx="0.430476" transform="matrix(-1 -1.74846e-07 -1.74846e-07 1 48.7205 68.7451)" fill="#A6A6A6" fill-opacity="0.5"/>
<rect width="2.15055" height="0.460455" rx="0.230228" transform="matrix(-1 -1.74846e-07 -1.74846e-07 1 48.2596 71.2008)" fill="#A6A6A6" fill-opacity="0.5"/>
<rect width="3.07221" height="2.30227" rx="0.430476" transform="matrix(-1 -1.74846e-07 -1.74846e-07 1 54.3755 68.7451)" fill="#A6A6A6" fill-opacity="0.5"/>
<rect width="2.15055" height="0.460455" rx="0.230228" transform="matrix(-1 -1.74846e-07 -1.74846e-07 1 53.9147 71.2008)" fill="#A6A6A6" fill-opacity="0.5"/>
<rect width="3.07221" height="2.30227" rx="0.430476" transform="matrix(-1 -1.74846e-07 -1.74846e-07 1 60.0305 68.7451)" fill="#61C3F2"/>
<rect width="2.15055" height="0.460455" rx="0.230228" transform="matrix(-1 -1.74846e-07 -1.74846e-07 1 59.5697 71.2008)" fill="#61C3F2"/>
<rect width="3.07221" height="2.30227" rx="0.430476" transform="matrix(-1 -1.74846e-07 -1.74846e-07 1 65.6857 68.7451)" fill="#61C3F2"/>
<rect width="2.15055" height="0.460455" rx="0.230228" transform="matrix(-1 -1.74846e-07 -1.74846e-07 1 65.2249 71.2008)" fill="#61C3F2"/>
<rect width="3.07221" height="2.30227" rx="0.430476" transform="matrix(-1 -1.74846e-07 -1.74846e-07 1 71.3407 68.7451)" fill="#A6A6A6" fill-opacity="0.5"/>
<rect width="2.15055" height="0.460455" rx="0.230228" transform="matrix(-1 -1.74846e-07 -1.74846e-07 1 70.8799 71.2008)" fill="#A6A6A6" fill-opacity="0.5"/>
<rect width="3.07221" height="2.30227" rx="0.430476" transform="matrix(-1 -1.74846e-07 -1.74846e-07 1 76.9957 68.7451)" fill="#A6A6A6" fill-opacity="0.5"/>
<rect width="2.15055" height="0.460455" rx="0.230228" transform="matrix(-1 -1.74846e-07 -1.74846e-07 1 76.5349 71.2008)" fill="#A6A6A6" fill-opacity="0.5"/>
<rect width="3.07221" height="2.30227" rx="0.430476" transform="matrix(-1 -1.74846e-07 -1.74846e-07 1 82.6509 68.7451)" fill="#61C3F2"/>
<rect width="2.15055" height="0.460455" rx="0.230228" transform="matrix(-1 -1.74846e-07 -1.74846e-07 1 82.1901 71.2008)" fill="#61C3F2"/>
<rect width="3.07221" height="2.30227" rx="0.430476" transform="matrix(-1 -1.74846e-07 -1.74846e-07 1 88.3059 68.7451)" fill="#61C3F2"/>
<rect width="2.15055" height="0.460455" rx="0.230228" transform="matrix(-1 -1.74846e-07 -1.74846e-07 1 87.8451 71.2008)" fill="#61C3F2"/>
<rect width="3.07221" height="2.30227" rx="0.430476" transform="matrix(-1 -1.74846e-07 -1.74846e-07 1 93.9609 68.7451)" fill="#A6A6A6" fill-opacity="0.5"/>
<rect width="2.15055" height="0.460455" rx="0.230228" transform="matrix(-1 -1.74846e-07 -1.74846e-07 1 93.5001 71.2008)" fill="#A6A6A6" fill-opacity="0.5"/>
<rect width="3.07221" height="2.30227" rx="0.430476" transform="matrix(-1 -1.74846e-07 -1.74846e-07 1 99.6161 68.7451)" fill="#A6A6A6" fill-opacity="0.5"/>
<rect width="2.15055" height="0.460455" rx="0.230228" transform="matrix(-1 -1.74846e-07 -1.74846e-07 1 99.1552 71.2008)" fill="#A6A6A6" fill-opacity="0.5"/>
<rect width="3.07221" height="2.30227" rx="0.430476" transform="matrix(-1 -1.74846e-07 -1.74846e-07 1 105.271 68.7451)" fill="#61C3F2"/>
<rect width="2.15055" height="0.460455" rx="0.230228" transform="matrix(-1 -1.74846e-07 -1.74846e-07 1 104.81 71.2008)" fill="#61C3F2"/>
<rect width="3.07221" height="2.30227" rx="0.430476" transform="matrix(-1 -1.74846e-07 -1.74846e-07 1 110.926 68.7451)" fill="#61C3F2"/>
<rect width="2.15055" height="0.460455" rx="0.230228" transform="matrix(-1 -1.74846e-07 -1.74846e-07 1 110.465 71.2008)" fill="#61C3F2"/>
<rect width="3.07221" height="2.30227" rx="0.430476" transform="matrix(-1 -1.74846e-07 -1.74846e-07 1 122.236 68.7451)" fill="#A6A6A6" fill-opacity="0.5"/>
<rect width="2.15055" height="0.460455" rx="0.230228" transform="matrix(-1 -1.74846e-07 -1.74846e-07 1 121.776 71.2008)" fill="#A6A6A6" fill-opacity="0.5"/>
<rect width="3.07221" height="2.30227" rx="0.430476" transform="matrix(-1 -1.74846e-07 -1.74846e-07 1 127.891 68.7451)" fill="#A6A6A6" fill-opacity="0.5"/>
<rect width="2.15055" height="0.460455" rx="0.230228" transform="matrix(-1 -1.74846e-07 -1.74846e-07 1 127.431 71.2008)" fill="#A6A6A6" fill-opacity="0.5"/>
<rect width="3.07221" height="2.30227" rx="0.430476" transform="matrix(-1 -1.74846e-07 -1.74846e-07 1 133.546 68.7451)" fill="#A6A6A6" fill-opacity="0.5"/>
<rect width="2.15055" height="0.460455" rx="0.230228" transform="matrix(-1 -1.74846e-07 -1.74846e-07 1 133.086 71.2008)" fill="#A6A6A6" fill-opacity="0.5"/>
<rect width="3.07221" height="2.30227" rx="0.430476" transform="matrix(-1 -1.74846e-07 -1.74846e-07 1 139.202 68.7451)" fill="#61C3F2"/>
<rect width="2.15055" height="0.460455" rx="0.230228" transform="matrix(-1 -1.74846e-07 -1.74846e-07 1 138.741 71.2008)" fill="#61C3F2"/>
<rect width="3.07221" height="2.30227" rx="0.430476" transform="matrix(-1 -1.74846e-07 -1.74846e-07 1 144.857 68.7451)" fill="#61C3F2"/>
<rect width="2.15055" height="0.460455" rx="0.230228" transform="matrix(-1 -1.74846e-07 -1.74846e-07 1 144.396 71.2008)" fill="#61C3F2"/>
<rect width="3.07221" height="2.30227" rx="0.430476" transform="matrix(-1 -1.74846e-07 -1.74846e-07 1 3.47986 75.5356)" fill="#A6A6A6" fill-opacity="0.5"/>
<rect width="2.15055" height="0.460455" rx="0.230228" transform="matrix(-1 -1.74846e-07 -1.74846e-07 1 3.01904 77.9913)" fill="#A6A6A6" fill-opacity="0.5"/>
<rect width="3.07221" height="2.30227" rx="0.430476" transform="matrix(-1 -1.74846e-07 -1.74846e-07 1 9.13489 75.5356)" fill="#A6A6A6" fill-opacity="0.5"/>
<rect width="2.15055" height="0.460455" rx="0.230228" transform="matrix(-1 -1.74846e-07 -1.74846e-07 1 8.67407 77.9913)" fill="#A6A6A6" fill-opacity="0.5"/>
<rect width="3.07221" height="2.30227" rx="0.430476" transform="matrix(-1 -1.74846e-07 -1.74846e-07 1 14.79 75.5356)" fill="#61C3F2"/>
<rect width="2.15055" height="0.460455" rx="0.230228" transform="matrix(-1 -1.74846e-07 -1.74846e-07 1 14.3292 77.9913)" fill="#61C3F2"/>
<rect width="3.07221" height="2.30227" rx="0.430476" transform="matrix(-1 -1.74846e-07 -1.74846e-07 1 20.4451 75.5356)" fill="#61C3F2"/>
<rect width="2.15055" height="0.460455" rx="0.230228" transform="matrix(-1 -1.74846e-07 -1.74846e-07 1 19.9843 77.9913)" fill="#61C3F2"/>
<rect width="3.07221" height="2.30227" rx="0.430476" transform="matrix(-1 -1.74846e-07 -1.74846e-07 1 26.1001 75.5356)" fill="#A6A6A6" fill-opacity="0.5"/>
<rect width="2.15055" height="0.460455" rx="0.230228" transform="matrix(-1 -1.74846e-07 -1.74846e-07 1 25.6393 77.9913)" fill="#A6A6A6" fill-opacity="0.5"/>
<rect width="3.07221" height="2.30227" rx="0.430476" transform="matrix(-1 -1.74846e-07 -1.74846e-07 1 37.4103 75.5356)" fill="#A6A6A6" fill-opacity="0.5"/>
<rect width="2.15055" height="0.460455" rx="0.230228" transform="matrix(-1 -1.74846e-07 -1.74846e-07 1 36.9495 77.9913)" fill="#A6A6A6" fill-opacity="0.5"/>
<rect width="3.07221" height="2.30227" rx="0.430476" transform="matrix(-1 -1.74846e-07 -1.74846e-07 1 43.0653 75.5356)" fill="#A6A6A6" fill-opacity="0.5"/>
<rect width="2.15055" height="0.460455" rx="0.230228" transform="matrix(-1 -1.74846e-07 -1.74846e-07 1 42.6045 77.9913)" fill="#A6A6A6" fill-opacity="0.5"/>
<rect width="3.07221" height="2.30227" rx="0.430476" transform="matrix(-1 -1.74846e-07 -1.74846e-07 1 48.7205 75.5356)" fill="#61C3F2"/>
<rect width="2.15055" height="0.460455" rx="0.230228" transform="matrix(-1 -1.74846e-07 -1.74846e-07 1 48.2596 77.9913)" fill="#61C3F2"/>
<rect width="3.07221" height="2.30227" rx="0.430476" transform="matrix(-1 -1.74846e-07 -1.74846e-07 1 54.3755 75.5356)" fill="#61C3F2"/>
<rect width="2.15055" height="0.460455" rx="0.230228" transform="matrix(-1 -1.74846e-07 -1.74846e-07 1 53.9147 77.9913)" fill="#61C3F2"/>
<rect width="3.07221" height="2.30227" rx="0.430476" transform="matrix(-1 -1.74846e-07 -1.74846e-07 1 60.0305 75.5356)" fill="#A6A6A6" fill-opacity="0.5"/>
<rect width="2.15055" height="0.460455" rx="0.230228" transform="matrix(-1 -1.74846e-07 -1.74846e-07 1 59.5697 77.9913)" fill="#A6A6A6" fill-opacity="0.5"/>
<rect width="3.07221" height="2.30227" rx="0.430476" transform="matrix(-1 -1.74846e-07 -1.74846e-07 1 65.6857 75.5356)" fill="#A6A6A6" fill-opacity="0.5"/>
<rect width="2.15055" height="0.460455" rx="0.230228" transform="matrix(-1 -1.74846e-07 -1.74846e-07 1 65.2249 77.9913)" fill="#A6A6A6" fill-opacity="0.5"/>
<rect width="3.07221" height="2.30227" rx="0.430476" transform="matrix(-1 -1.74846e-07 -1.74846e-07 1 71.3407 75.5356)" fill="#61C3F2"/>
<rect width="2.15055" height="0.460455" rx="0.230228" transform="matrix(-1 -1.74846e-07 -1.74846e-07 1 70.8799 77.9913)" fill="#61C3F2"/>
<rect width="3.07221" height="2.30227" rx="0.430476" transform="matrix(-1 -1.74846e-07 -1.74846e-07 1 76.9957 75.5356)" fill="#61C3F2"/>
<rect width="2.15055" height="0.460455" rx="0.230228" transform="matrix(-1 -1.74846e-07 -1.74846e-07 1 76.5349 77.9913)" fill="#61C3F2"/>
<rect width="3.07221" height="2.30227" rx="0.430476" transform="matrix(-1 -1.74846e-07 -1.74846e-07 1 82.6509 75.5356)" fill="#A6A6A6" fill-opacity="0.5"/>
<rect width="2.15055" height="0.460455" rx="0.230228" transform="matrix(-1 -1.74846e-07 -1.74846e-07 1 82.1901 77.9913)" fill="#A6A6A6" fill-opacity="0.5"/>
<rect width="3.07221" height="2.30227" rx="0.430476" transform="matrix(-1 -1.74846e-07 -1.74846e-07 1 88.3059 75.5356)" fill="#A6A6A6" fill-opacity="0.5"/>
<rect width="2.15055" height="0.460455" rx="0.230228" transform="matrix(-1 -1.74846e-07 -1.74846e-07 1 87.8451 77.9913)" fill="#A6A6A6" fill-opacity="0.5"/>
<rect width="3.07221" height="2.30227" rx="0.430476" transform="matrix(-1 -1.74846e-07 -1.74846e-07 1 93.9609 75.5356)" fill="#61C3F2"/>
<rect width="2.15055" height="0.460455" rx="0.230228" transform="matrix(-1 -1.74846e-07 -1.74846e-07 1 93.5001 77.9913)" fill="#61C3F2"/>
<rect width="3.07221" height="2.30227" rx="0.430476" transform="matrix(-1 -1.74846e-07 -1.74846e-07 1 99.6161 75.5356)" fill="#61C3F2"/>
<rect width="2.15055" height="0.460455" rx="0.230228" transform="matrix(-1 -1.74846e-07 -1.74846e-07 1 99.1552 77.9913)" fill="#61C3F2"/>
<rect width="3.07221" height="2.30227" rx="0.430476" transform="matrix(-1 -1.74846e-07 -1.74846e-07 1 105.271 75.5356)" fill="#A6A6A6" fill-opacity="0.5"/>
<rect width="2.15055" height="0.460455" rx="0.230228" transform="matrix(-1 -1.74846e-07 -1.74846e-07 1 104.81 77.9913)" fill="#A6A6A6" fill-opacity="0.5"/>
<rect width="3.07221" height="2.30227" rx="0.430476" transform="matrix(-1 -1.74846e-07 -1.74846e-07 1 110.926 75.5356)" fill="#A6A6A6" fill-opacity="0.5"/>
<rect width="2.15055" height="0.460455" rx="0.230228" transform="matrix(-1 -1.74846e-07 -1.74846e-07 1 110.465 77.9913)" fill="#A6A6A6" fill-opacity="0.5"/>
<rect width="3.07221" height="2.30227" rx="0.430476" transform="matrix(-1 -1.74846e-07 -1.74846e-07 1 122.236 75.5356)" fill="#A6A6A6" fill-opacity="0.5"/>
<rect width="2.15055" height="0.460455" rx="0.230228" transform="matrix(-1 -1.74846e-07 -1.74846e-07 1 121.776 77.9913)" fill="#A6A6A6" fill-opacity="0.5"/>
<rect width="3.07221" height="2.30227" rx="0.430476" transform="matrix(-1 -1.74846e-07 -1.74846e-07 1 127.891 75.5356)" fill="#61C3F2"/>
<rect width="2.15055" height="0.460455" rx="0.230228" transform="matrix(-1 -1.74846e-07 -1.74846e-07 1 127.431 77.9913)" fill="#61C3F2"/>
<rect width="3.07221" height="2.30227" rx="0.430476" transform="matrix(-1 -1.74846e-07 -1.74846e-07 1 133.546 75.5356)" fill="#61C3F2"/>
<rect width="2.15055" height="0.460455" rx="0.230228" transform="matrix(-1 -1.74846e-07 -1.74846e-07 1 133.086 77.9913)" fill="#61C3F2"/>
<rect width="3.07221" height="2.30227" rx="0.430476" transform="matrix(-1 -1.74846e-07 -1.74846e-07 1 139.202 75.5356)" fill="#A6A6A6" fill-opacity="0.5"/>
<rect width="2.15055" height="0.460455" rx="0.230228" transform="matrix(-1 -1.74846e-07 -1.74846e-07 1 138.741 77.9913)" fill="#A6A6A6" fill-opacity="0.5"/>
<rect width="3.07221" height="2.30227" rx="0.430476" transform="matrix(-1 -1.74846e-07 -1.74846e-07 1 144.857 75.5356)" fill="#A6A6A6" fill-opacity="0.5"/>
<rect width="2.15055" height="0.460455" rx="0.230228" transform="matrix(-1 -1.74846e-07 -1.74846e-07 1 144.396 77.9913)" fill="#A6A6A6" fill-opacity="0.5"/>
<rect width="3.07221" height="2.30227" rx="0.430476" transform="matrix(-1 -1.74846e-07 -1.74846e-07 1 3.47986 82.3261)" fill="#61C3F2"/>
<rect width="2.15055" height="0.460455" rx="0.230228" transform="matrix(-1 -1.74846e-07 -1.74846e-07 1 3.01904 84.7818)" fill="#61C3F2"/>
<rect width="3.07221" height="2.30227" rx="0.430476" transform="matrix(-1 -1.74846e-07 -1.74846e-07 1 9.13489 82.3261)" fill="#61C3F2"/>
<rect width="2.15055" height="0.460455" rx="0.230228" transform="matrix(-1 -1.74846e-07 -1.74846e-07 1 8.67407 84.7818)" fill="#61C3F2"/>
<rect width="3.07221" height="2.30227" rx="0.430476" transform="matrix(-1 -1.74846e-07 -1.74846e-07 1 14.79 82.3261)" fill="#A6A6A6" fill-opacity="0.5"/>
<rect width="2.15055" height="0.460455" rx="0.230228" transform="matrix(-1 -1.74846e-07 -1.74846e-07 1 14.3292 84.7818)" fill="#A6A6A6" fill-opacity="0.5"/>
<rect width="3.07221" height="2.30227" rx="0.430476" transform="matrix(-1 -1.74846e-07 -1.74846e-07 1 20.4451 82.3261)" fill="#A6A6A6" fill-opacity="0.5"/>
<rect width="2.15055" height="0.460455" rx="0.230228" transform="matrix(-1 -1.74846e-07 -1.74846e-07 1 19.9843 84.7818)" fill="#A6A6A6" fill-opacity="0.5"/>
<rect width="3.07221" height="2.30227" rx="0.430476" transform="matrix(-1 -1.74846e-07 -1.74846e-07 1 26.1001 82.3261)" fill="#A6A6A6" fill-opacity="0.5"/>
<rect width="2.15055" height="0.460455" rx="0.230228" transform="matrix(-1 -1.74846e-07 -1.74846e-07 1 25.6393 84.7818)" fill="#A6A6A6" fill-opacity="0.5"/>
<rect width="3.07221" height="2.30227" rx="0.430476" transform="matrix(-1 -1.74846e-07 -1.74846e-07 1 37.4103 82.3261)" fill="#61C3F2"/>
<rect width="2.15055" height="0.460455" rx="0.230228" transform="matrix(-1 -1.74846e-07 -1.74846e-07 1 36.9495 84.7818)" fill="#61C3F2"/>
<rect width="3.07221" height="2.30227" rx="0.430476" transform="matrix(-1 -1.74846e-07 -1.74846e-07 1 43.0653 82.3261)" fill="#61C3F2"/>
<rect width="2.15055" height="0.460455" rx="0.230228" transform="matrix(-1 -1.74846e-07 -1.74846e-07 1 42.6045 84.7818)" fill="#61C3F2"/>
<rect width="3.07221" height="2.30227" rx="0.430476" transform="matrix(-1 -1.74846e-07 -1.74846e-07 1 48.7205 82.3261)" fill="#A6A6A6" fill-opacity="0.5"/>
<rect width="2.15055" height="0.460455" rx="0.230228" transform="matrix(-1 -1.74846e-07 -1.74846e-07 1 48.2596 84.7818)" fill="#A6A6A6" fill-opacity="0.5"/>
<rect width="3.07221" height="2.30227" rx="0.430476" transform="matrix(-1 -1.74846e-07 -1.74846e-07 1 54.3755 82.3261)" fill="#A6A6A6" fill-opacity="0.5"/>
<rect width="2.15055" height="0.460455" rx="0.230228" transform="matrix(-1 -1.74846e-07 -1.74846e-07 1 53.9147 84.7818)" fill="#A6A6A6" fill-opacity="0.5"/>
<rect width="3.07221" height="2.30227" rx="0.430476" transform="matrix(-1 -1.74846e-07 -1.74846e-07 1 60.0305 82.3261)" fill="#61C3F2"/>
<rect width="2.15055" height="0.460455" rx="0.230228" transform="matrix(-1 -1.74846e-07 -1.74846e-07 1 59.5697 84.7818)" fill="#61C3F2"/>
<rect width="3.07221" height="2.30227" rx="0.430476" transform="matrix(-1 -1.74846e-07 -1.74846e-07 1 65.6857 82.3261)" fill="#61C3F2"/>
<rect width="2.15055" height="0.460455" rx="0.230228" transform="matrix(-1 -1.74846e-07 -1.74846e-07 1 65.2249 84.7818)" fill="#61C3F2"/>
<rect width="3.07221" height="2.30227" rx="0.430476" transform="matrix(-1 -1.74846e-07 -1.74846e-07 1 71.3407 82.3261)" fill="#A6A6A6" fill-opacity="0.5"/>
<rect width="2.15055" height="0.460455" rx="0.230228" transform="matrix(-1 -1.74846e-07 -1.74846e-07 1 70.8799 84.7818)" fill="#A6A6A6" fill-opacity="0.5"/>
<rect width="3.07221" height="2.30227" rx="0.430476" transform="matrix(-1 -1.74846e-07 -1.74846e-07 1 76.9957 82.3261)" fill="#A6A6A6" fill-opacity="0.5"/>
<rect width="2.15055" height="0.460455" rx="0.230228" transform="matrix(-1 -1.74846e-07 -1.74846e-07 1 76.5349 84.7818)" fill="#A6A6A6" fill-opacity="0.5"/>
<rect width="3.07221" height="2.30227" rx="0.430476" transform="matrix(-1 -1.74846e-07 -1.74846e-07 1 82.6509 82.3261)" fill="#61C3F2"/>
<rect width="2.15055" height="0.460455" rx="0.230228" transform="matrix(-1 -1.74846e-07 -1.74846e-07 1 82.1901 84.7818)" fill="#61C3F2"/>
<rect width="3.07221" height="2.30227" rx="0.430476" transform="matrix(-1 -1.74846e-07 -1.74846e-07 1 88.3059 82.3261)" fill="#61C3F2"/>
<rect width="2.15055" height="0.460455" rx="0.230228" transform="matrix(-1 -1.74846e-07 -1.74846e-07 1 87.8451 84.7818)" fill="#61C3F2"/>
<rect width="3.07221" height="2.30227" rx="0.430476" transform="matrix(-1 -1.74846e-07 -1.74846e-07 1 93.9609 82.3261)" fill="#A6A6A6" fill-opacity="0.5"/>
<rect width="2.15055" height="0.460455" rx="0.230228" transform="matrix(-1 -1.74846e-07 -1.74846e-07 1 93.5001 84.7818)" fill="#A6A6A6" fill-opacity="0.5"/>
<rect width="3.07221" height="2.30227" rx="0.430476" transform="matrix(-1 -1.74846e-07 -1.74846e-07 1 99.6161 82.3261)" fill="#A6A6A6" fill-opacity="0.5"/>
<rect width="2.15055" height="0.460455" rx="0.230228" transform="matrix(-1 -1.74846e-07 -1.74846e-07 1 99.1552 84.7818)" fill="#A6A6A6" fill-opacity="0.5"/>
<rect width="3.07221" height="2.30227" rx="0.430476" transform="matrix(-1 -1.74846e-07 -1.74846e-07 1 105.271 82.3261)" fill="#61C3F2"/>
<rect width="2.15055" height="0.460455" rx="0.230228" transform="matrix(-1 -1.74846e-07 -1.74846e-07 1 104.81 84.7818)" fill="#61C3F2"/>
<rect width="3.07221" height="2.30227" rx="0.430476" transform="matrix(-1 -1.74846e-07 -1.74846e-07 1 110.926 82.3261)" fill="#61C3F2"/>
<rect width="2.15055" height="0.460455" rx="0.230228" transform="matrix(-1 -1.74846e-07 -1.74846e-07 1 110.465 84.7818)" fill="#61C3F2"/>
<rect width="3.07221" height="2.30227" rx="0.430476" transform="matrix(-1 -1.74846e-07 -1.74846e-07 1 122.236 82.3261)" fill="#A6A6A6" fill-opacity="0.5"/>
<rect width="2.15055" height="0.460455" rx="0.230228" transform="matrix(-1 -1.74846e-07 -1.74846e-07 1 121.776 84.7818)" fill="#A6A6A6" fill-opacity="0.5"/>
<rect width="3.07221" height="2.30227" rx="0.430476" transform="matrix(-1 -1.74846e-07 -1.74846e-07 1 127.891 82.3261)" fill="#A6A6A6" fill-opacity="0.5"/>
<rect width="2.15055" height="0.460455" rx="0.230228" transform="matrix(-1 -1.74846e-07 -1.74846e-07 1 127.431 84.7818)" fill="#A6A6A6" fill-opacity="0.5"/>
<rect width="3.07221" height="2.30227" rx="0.430476" transform="matrix(-1 -1.74846e-07 -1.74846e-07 1 133.546 82.3261)" fill="#A6A6A6" fill-opacity="0.5"/>
<rect width="2.15055" height="0.460455" rx="0.230228" transform="matrix(-1 -1.74846e-07 -1.74846e-07 1 133.086 84.7819)" fill="#A6A6A6" fill-opacity="0.5"/>
<rect width="3.07221" height="2.30227" rx="0.430476" transform="matrix(-1 -1.74846e-07 -1.74846e-07 1 139.202 82.3261)" fill="#61C3F2"/>
<rect width="2.15055" height="0.460455" rx="0.230228" transform="matrix(-1 -1.74846e-07 -1.74846e-07 1 138.741 84.7819)" fill="#61C3F2"/>
<rect width="3.07221" height="2.30227" rx="0.430476" transform="matrix(-1 -1.74846e-07 -1.74846e-07 1 144.857 82.3261)" fill="#61C3F2"/>
<rect width="2.15055" height="0.460455" rx="0.230228" transform="matrix(-1 -1.74846e-07 -1.74846e-07 1 144.396 84.7819)" fill="#61C3F2"/>
<rect width="3.07221" height="2.30227" rx="0.430476" transform="matrix(-1 -1.74846e-07 -1.74846e-07 1 3.47986 89.1166)" fill="#A6A6A6" fill-opacity="0.5"/>
<rect width="2.15055" height="0.460455" rx="0.230228" transform="matrix(-1 -1.74846e-07 -1.74846e-07 1 3.01904 91.5723)" fill="#A6A6A6" fill-opacity="0.5"/>
<rect width="3.07221" height="2.30227" rx="0.430476" transform="matrix(-1 -1.74846e-07 -1.74846e-07 1 9.13489 89.1166)" fill="#A6A6A6" fill-opacity="0.5"/>
<rect width="2.15055" height="0.460455" rx="0.230228" transform="matrix(-1 -1.74846e-07 -1.74846e-07 1 8.67407 91.5723)" fill="#A6A6A6" fill-opacity="0.5"/>
<rect width="3.07221" height="2.30227" rx="0.430476" transform="matrix(-1 -1.74846e-07 -1.74846e-07 1 14.79 89.1166)" fill="#61C3F2"/>
<rect width="2.15055" height="0.460455" rx="0.230228" transform="matrix(-1 -1.74846e-07 -1.74846e-07 1 14.3292 91.5723)" fill="#61C3F2"/>
<rect width="3.07221" height="2.30227" rx="0.430476" transform="matrix(-1 -1.74846e-07 -1.74846e-07 1 20.4451 89.1166)" fill="#61C3F2"/>
<rect width="2.15055" height="0.460455" rx="0.230228" transform="matrix(-1 -1.74846e-07 -1.74846e-07 1 19.9843 91.5723)" fill="#61C3F2"/>
<rect width="3.07221" height="2.30227" rx="0.430476" transform="matrix(-1 -1.74846e-07 -1.74846e-07 1 26.1001 89.1166)" fill="#A6A6A6" fill-opacity="0.5"/>
<rect width="2.15055" height="0.460455" rx="0.230228" transform="matrix(-1 -1.74846e-07 -1.74846e-07 1 25.6393 91.5723)" fill="#A6A6A6" fill-opacity="0.5"/>
<rect width="3.07221" height="2.30227" rx="0.430476" transform="matrix(-1 -1.74846e-07 -1.74846e-07 1 37.4103 89.1166)" fill="#A6A6A6" fill-opacity="0.5"/>
<rect width="2.15055" height="0.460455" rx="0.230228" transform="matrix(-1 -1.74846e-07 -1.74846e-07 1 36.9495 91.5723)" fill="#A6A6A6" fill-opacity="0.5"/>
<rect width="3.07221" height="2.30227" rx="0.430476" transform="matrix(-1 -1.74846e-07 -1.74846e-07 1 43.0653 89.1166)" fill="#A6A6A6" fill-opacity="0.5"/>
<rect width="2.15055" height="0.460455" rx="0.230228" transform="matrix(-1 -1.74846e-07 -1.74846e-07 1 42.6045 91.5723)" fill="#A6A6A6" fill-opacity="0.5"/>
<rect width="3.07221" height="2.30227" rx="0.430476" transform="matrix(-1 -1.74846e-07 -1.74846e-07 1 48.7205 89.1166)" fill="#61C3F2"/>
<rect width="2.15055" height="0.460455" rx="0.230228" transform="matrix(-1 -1.74846e-07 -1.74846e-07 1 48.2596 91.5723)" fill="#61C3F2"/>
<rect width="3.07221" height="2.30227" rx="0.430476" transform="matrix(-1 -1.74846e-07 -1.74846e-07 1 54.3755 89.1166)" fill="#61C3F2"/>
<rect width="2.15055" height="0.460455" rx="0.230228" transform="matrix(-1 -1.74846e-07 -1.74846e-07 1 53.9147 91.5723)" fill="#61C3F2"/>
<rect width="3.07221" height="2.30227" rx="0.430476" transform="matrix(-1 -1.74846e-07 -1.74846e-07 1 60.0305 89.1166)" fill="#A6A6A6" fill-opacity="0.5"/>
<rect width="2.15055" height="0.460455" rx="0.230228" transform="matrix(-1 -1.74846e-07 -1.74846e-07 1 59.5697 91.5724)" fill="#A6A6A6" fill-opacity="0.5"/>
<rect width="3.07221" height="2.30227" rx="0.430476" transform="matrix(-1 -1.74846e-07 -1.74846e-07 1 65.6857 89.1166)" fill="#A6A6A6" fill-opacity="0.5"/>
<rect width="2.15055" height="0.460455" rx="0.230228" transform="matrix(-1 -1.74846e-07 -1.74846e-07 1 65.2249 91.5724)" fill="#A6A6A6" fill-opacity="0.5"/>
<rect width="3.07221" height="2.30227" rx="0.430476" transform="matrix(-1 -1.74846e-07 -1.74846e-07 1 71.3407 89.1166)" fill="#61C3F2"/>
<rect width="2.15055" height="0.460455" rx="0.230228" transform="matrix(-1 -1.74846e-07 -1.74846e-07 1 70.8799 91.5724)" fill="#61C3F2"/>
<rect width="3.07221" height="2.30227" rx="0.430476" transform="matrix(-1 -1.74846e-07 -1.74846e-07 1 76.9957 89.1166)" fill="#61C3F2"/>
<rect width="2.15055" height="0.460455" rx="0.230228" transform="matrix(-1 -1.74846e-07 -1.74846e-07 1 76.5349 91.5724)" fill="#61C3F2"/>
<rect width="3.07221" height="2.30227" rx="0.430476" transform="matrix(-1 -1.74846e-07 -1.74846e-07 1 82.6509 89.1166)" fill="#A6A6A6" fill-opacity="0.5"/>
<rect width="2.15055" height="0.460455" rx="0.230228" transform="matrix(-1 -1.74846e-07 -1.74846e-07 1 82.1901 91.5724)" fill="#A6A6A6" fill-opacity="0.5"/>
<rect width="3.07221" height="2.30227" rx="0.430476" transform="matrix(-1 -1.74846e-07 -1.74846e-07 1 88.3059 89.1166)" fill="#A6A6A6" fill-opacity="0.5"/>
<rect width="2.15055" height="0.460455" rx="0.230228" transform="matrix(-1 -1.74846e-07 -1.74846e-07 1 87.8451 91.5724)" fill="#A6A6A6" fill-opacity="0.5"/>
<rect width="3.07221" height="2.30227" rx="0.430476" transform="matrix(-1 -1.74846e-07 -1.74846e-07 1 93.9609 89.1166)" fill="#61C3F2"/>
<rect width="2.15055" height="0.460455" rx="0.230228" transform="matrix(-1 -1.74846e-07 -1.74846e-07 1 93.5001 91.5724)" fill="#61C3F2"/>
<rect width="3.07221" height="2.30227" rx="0.430476" transform="matrix(-1 -1.74846e-07 -1.74846e-07 1 99.6161 89.1166)" fill="#61C3F2"/>
<rect width="2.15055" height="0.460455" rx="0.230228" transform="matrix(-1 -1.74846e-07 -1.74846e-07 1 99.1552 91.5724)" fill="#61C3F2"/>
<rect width="3.07221" height="2.30227" rx="0.430476" transform="matrix(-1 -1.74846e-07 -1.74846e-07 1 105.271 89.1166)" fill="#A6A6A6" fill-opacity="0.5"/>
<rect width="2.15055" height="0.460455" rx="0.230228" transform="matrix(-1 -1.74846e-07 -1.74846e-07 1 104.81 91.5724)" fill="#A6A6A6" fill-opacity="0.5"/>
<rect width="3.07221" height="2.30227" rx="0.430476" transform="matrix(-1 -1.74846e-07 -1.74846e-07 1 110.926 89.1166)" fill="#A6A6A6" fill-opacity="0.5"/>
<rect width="2.15055" height="0.460455" rx="0.230228" transform="matrix(-1 -1.74846e-07 -1.74846e-07 1 110.465 91.5724)" fill="#A6A6A6" fill-opacity="0.5"/>
<rect width="3.07221" height="2.30227" rx="0.430476" transform="matrix(-1 -1.74846e-07 -1.74846e-07 1 122.236 89.1166)" fill="#A6A6A6" fill-opacity="0.5"/>
<rect width="2.15055" height="0.460455" rx="0.230228" transform="matrix(-1 -1.74846e-07 -1.74846e-07 1 121.776 91.5724)" fill="#A6A6A6" fill-opacity="0.5"/>
<rect width="3.07221" height="2.30227" rx="0.430476" transform="matrix(-1 -1.74846e-07 -1.74846e-07 1 127.891 89.1166)" fill="#61C3F2"/>
<rect width="2.15055" height="0.460455" rx="0.230228" transform="matrix(-1 -1.74846e-07 -1.74846e-07 1 127.431 91.5724)" fill="#61C3F2"/>
<rect width="3.07221" height="2.30227" rx="0.430476" transform="matrix(-1 -1.74846e-07 -1.74846e-07 1 133.546 89.1166)" fill="#61C3F2"/>
<rect width="2.15055" height="0.460455" rx="0.230228" transform="matrix(-1 -1.74846e-07 -1.74846e-07 1 133.086 91.5724)" fill="#61C3F2"/>
<rect width="3.07221" height="2.30227" rx="0.430476" transform="matrix(-1 -1.74846e-07 -1.74846e-07 1 139.202 89.1166)" fill="#A6A6A6" fill-opacity="0.5"/>
<rect width="2.15055" height="0.460455" rx="0.230228" transform="matrix(-1 -1.74846e-07 -1.74846e-07 1 138.741 91.5724)" fill="#A6A6A6" fill-opacity="0.5"/>
<rect width="3.07221" height="2.30227" rx="0.430476" transform="matrix(-1 -1.74846e-07 -1.74846e-07 1 144.857 89.1166)" fill="#A6A6A6" fill-opacity="0.5"/>
<rect width="2.15055" height="0.460455" rx="0.230228" transform="matrix(-1 -1.74846e-07 -1.74846e-07 1 144.396 91.5724)" fill="#A6A6A6" fill-opacity="0.5"/>
<rect width="3.07221" height="2.30227" rx="0.430476" transform="matrix(-1 -1.74846e-07 -1.74846e-07 1 3.47986 95.9071)" fill="#61C3F2"/>
<rect width="2.15055" height="0.460455" rx="0.230228" transform="matrix(-1 -1.74846e-07 -1.74846e-07 1 3.01904 98.3629)" fill="#61C3F2"/>
<rect width="3.07221" height="2.30227" rx="0.430476" transform="matrix(-1 -1.74846e-07 -1.74846e-07 1 9.13489 95.9071)" fill="#61C3F2"/>
<rect width="2.15055" height="0.460455" rx="0.230228" transform="matrix(-1 -1.74846e-07 -1.74846e-07 1 8.67407 98.3629)" fill="#61C3F2"/>
<rect width="3.07221" height="2.30227" rx="0.430476" transform="matrix(-1 -1.74846e-07 -1.74846e-07 1 14.79 95.9071)" fill="#A6A6A6" fill-opacity="0.5"/>
<rect width="2.15055" height="0.460455" rx="0.230228" transform="matrix(-1 -1.74846e-07 -1.74846e-07 1 14.3292 98.3629)" fill="#A6A6A6" fill-opacity="0.5"/>
<rect width="3.07221" height="2.30227" rx="0.430476" transform="matrix(-1 -1.74846e-07 -1.74846e-07 1 20.4451 95.9071)" fill="#A6A6A6" fill-opacity="0.5"/>
<rect width="2.15055" height="0.460455" rx="0.230228" transform="matrix(-1 -1.74846e-07 -1.74846e-07 1 19.9843 98.3629)" fill="#A6A6A6" fill-opacity="0.5"/>
<rect width="3.07221" height="2.30227" rx="0.430476" transform="matrix(-1 -1.74846e-07 -1.74846e-07 1 26.1001 95.9071)" fill="#A6A6A6" fill-opacity="0.5"/>
<rect width="2.15055" height="0.460455" rx="0.230228" transform="matrix(-1 -1.74846e-07 -1.74846e-07 1 25.6393 98.3629)" fill="#A6A6A6" fill-opacity="0.5"/>
<rect width="3.07221" height="2.30227" rx="0.430476" transform="matrix(-1 -1.74846e-07 -1.74846e-07 1 37.4103 95.9071)" fill="#61C3F2"/>
<rect width="2.15055" height="0.460455" rx="0.230228" transform="matrix(-1 -1.74846e-07 -1.74846e-07 1 36.9495 98.3629)" fill="#61C3F2"/>
<rect width="3.07221" height="2.30227" rx="0.430476" transform="matrix(-1 -1.74846e-07 -1.74846e-07 1 43.0653 95.9071)" fill="#61C3F2"/>
<rect width="2.15055" height="0.460455" rx="0.230228" transform="matrix(-1 -1.74846e-07 -1.74846e-07 1 42.6045 98.3629)" fill="#61C3F2"/>
<rect width="3.07221" height="2.30227" rx="0.430476" transform="matrix(-1 -1.74846e-07 -1.74846e-07 1 48.7205 95.9071)" fill="#A6A6A6" fill-opacity="0.5"/>
<rect width="2.15055" height="0.460455" rx="0.230228" transform="matrix(-1 -1.74846e-07 -1.74846e-07 1 48.2596 98.3629)" fill="#A6A6A6" fill-opacity="0.5"/>
<rect width="3.07221" height="2.30227" rx="0.430476" transform="matrix(-1 -1.74846e-07 -1.74846e-07 1 54.3755 95.9071)" fill="#A6A6A6" fill-opacity="0.5"/>
<rect width="2.15055" height="0.460455" rx="0.230228" transform="matrix(-1 -1.74846e-07 -1.74846e-07 1 53.9147 98.3629)" fill="#A6A6A6" fill-opacity="0.5"/>
<rect width="3.07221" height="2.30227" rx="0.430476" transform="matrix(-1 -1.74846e-07 -1.74846e-07 1 60.0305 95.9071)" fill="#61C3F2"/>
<rect width="2.15055" height="0.460455" rx="0.230228" transform="matrix(-1 -1.74846e-07 -1.74846e-07 1 59.5697 98.3629)" fill="#61C3F2"/>
<rect width="3.07221" height="2.30227" rx="0.430476" transform="matrix(-1 -1.74846e-07 -1.74846e-07 1 65.6857 95.9071)" fill="#61C3F2"/>
<rect width="2.15055" height="0.460455" rx="0.230228" transform="matrix(-1 -1.74846e-07 -1.74846e-07 1 65.2249 98.3629)" fill="#61C3F2"/>
<rect width="3.07221" height="2.30227" rx="0.430476" transform="matrix(-1 -1.74846e-07 -1.74846e-07 1 71.3407 95.9071)" fill="#A6A6A6" fill-opacity="0.5"/>
<rect width="2.15055" height="0.460455" rx="0.230228" transform="matrix(-1 -1.74846e-07 -1.74846e-07 1 70.8799 98.3629)" fill="#A6A6A6" fill-opacity="0.5"/>
<rect width="3.07221" height="2.30227" rx="0.430476" transform="matrix(-1 -1.74846e-07 -1.74846e-07 1 76.9957 95.9071)" fill="#A6A6A6" fill-opacity="0.5"/>
<rect width="2.15055" height="0.460455" rx="0.230228" transform="matrix(-1 -1.74846e-07 -1.74846e-07 1 76.5349 98.3629)" fill="#A6A6A6" fill-opacity="0.5"/>
<rect width="3.07221" height="2.30227" rx="0.430476" transform="matrix(-1 -1.74846e-07 -1.74846e-07 1 82.6509 95.9071)" fill="#61C3F2"/>
<rect width="2.15055" height="0.460455" rx="0.230228" transform="matrix(-1 -1.74846e-07 -1.74846e-07 1 82.1901 98.3629)" fill="#61C3F2"/>
<rect width="3.07221" height="2.30227" rx="0.430476" transform="matrix(-1 -1.74846e-07 -1.74846e-07 1 88.3059 95.9071)" fill="#61C3F2"/>
<rect width="2.15055" height="0.460455" rx="0.230228" transform="matrix(-1 -1.74846e-07 -1.74846e-07 1 87.8451 98.3629)" fill="#61C3F2"/>
<rect width="3.07221" height="2.30227" rx="0.430476" transform="matrix(-1 -1.74846e-07 -1.74846e-07 1 93.9609 95.9071)" fill="#A6A6A6" fill-opacity="0.5"/>
<rect width="2.15055" height="0.460455" rx="0.230228" transform="matrix(-1 -1.74846e-07 -1.74846e-07 1 93.5001 98.3629)" fill="#A6A6A6" fill-opacity="0.5"/>
<rect width="3.07221" height="2.30227" rx="0.430476" transform="matrix(-1 -1.74846e-07 -1.74846e-07 1 99.6161 95.9071)" fill="#A6A6A6" fill-opacity="0.5"/>
<rect width="2.15055" height="0.460455" rx="0.230228" transform="matrix(-1 -1.74846e-07 -1.74846e-07 1 99.1552 98.3629)" fill="#A6A6A6" fill-opacity="0.5"/>
<rect width="3.07221" height="2.30227" rx="0.430476" transform="matrix(-1 -1.74846e-07 -1.74846e-07 1 105.271 95.9071)" fill="#61C3F2"/>
<rect width="2.15055" height="0.460455" rx="0.230228" transform="matrix(-1 -1.74846e-07 -1.74846e-07 1 104.81 98.3629)" fill="#61C3F2"/>
<rect width="3.07221" height="2.30227" rx="0.430476" transform="matrix(-1 -1.74846e-07 -1.74846e-07 1 110.926 95.9071)" fill="#61C3F2"/>
<rect width="2.15055" height="0.460455" rx="0.230228" transform="matrix(-1 -1.74846e-07 -1.74846e-07 1 110.465 98.3629)" fill="#61C3F2"/>
<rect width="3.07221" height="2.30227" rx="0.430476" transform="matrix(-1 -1.74846e-07 -1.74846e-07 1 122.236 95.9071)" fill="#A6A6A6" fill-opacity="0.5"/>
<rect width="2.15055" height="0.460455" rx="0.230228" transform="matrix(-1 -1.74846e-07 -1.74846e-07 1 121.776 98.3629)" fill="#A6A6A6" fill-opacity="0.5"/>
<rect width="3.07221" height="2.30227" rx="0.430476" transform="matrix(-1 -1.74846e-07 -1.74846e-07 1 127.891 95.9071)" fill="#A6A6A6" fill-opacity="0.5"/>
<rect width="2.15055" height="0.460455" rx="0.230228" transform="matrix(-1 -1.74846e-07 -1.74846e-07 1 127.431 98.3629)" fill="#A6A6A6" fill-opacity="0.5"/>
<rect width="3.07221" height="2.30227" rx="0.430476" transform="matrix(-1 -1.74846e-07 -1.74846e-07 1 133.546 95.9071)" fill="#A6A6A6" fill-opacity="0.5"/>
<rect width="2.15055" height="0.460455" rx="0.230228" transform="matrix(-1 -1.74846e-07 -1.74846e-07 1 133.086 98.3629)" fill="#A6A6A6" fill-opacity="0.5"/>
<rect width="3.07221" height="2.30227" rx="0.430476" transform="matrix(-1 -1.74846e-07 -1.74846e-07 1 139.202 95.9071)" fill="#61C3F2"/>
<rect width="2.15055" height="0.460455" rx="0.230228" transform="matrix(-1 -1.74846e-07 -1.74846e-07 1 138.741 98.3629)" fill="#61C3F2"/>
<rect width="3.07221" height="2.30227" rx="0.430476" transform="matrix(-1 -1.74846e-07 -1.74846e-07 1 144.857 95.9071)" fill="#61C3F2"/>
<rect width="2.15055" height="0.460455" rx="0.230228" transform="matrix(-1 -1.74846e-07 -1.74846e-07 1 144.396 98.3629)" fill="#61C3F2"/>
<rect width="3.07221" height="2.30227" rx="0.430476" transform="matrix(-1 -1.74846e-07 -1.74846e-07 1 9.13489 102.698)" fill="#A6A6A6" fill-opacity="0.5"/>
<rect width="2.15055" height="0.460455" rx="0.230228" transform="matrix(-1 -1.74846e-07 -1.74846e-07 1 8.67407 105.153)" fill="#A6A6A6" fill-opacity="0.5"/>
<rect width="3.07221" height="2.30227" rx="0.430476" transform="matrix(-1 -1.74846e-07 -1.74846e-07 1 14.79 102.698)" fill="#4FD2CF"/>
<rect width="2.15055" height="0.460455" rx="0.230228" transform="matrix(-1 -1.74846e-07 -1.74846e-07 1 14.3292 105.153)" fill="#4FD2CF"/>
<rect width="3.07221" height="2.30227" rx="0.430476" transform="matrix(-1 -1.74846e-07 -1.74846e-07 1 20.4451 102.698)" fill="#4FD2CF"/>
<rect width="2.15055" height="0.460455" rx="0.230228" transform="matrix(-1 -1.74846e-07 -1.74846e-07 1 19.9843 105.153)" fill="#4FD2CF"/>
<rect width="3.07221" height="2.30227" rx="0.430476" transform="matrix(-1 -1.74846e-07 -1.74846e-07 1 43.0653 102.698)" fill="#61C3F2"/>
<rect width="2.15055" height="0.460455" rx="0.230228" transform="matrix(-1 -1.74846e-07 -1.74846e-07 1 42.6045 105.153)" fill="#61C3F2"/>
<rect width="3.07221" height="2.30227" rx="0.430476" transform="matrix(-1 -1.74846e-07 -1.74846e-07 1 48.7205 102.698)" fill="#A6A6A6" fill-opacity="0.5"/>
<rect width="2.15055" height="0.460455" rx="0.230228" transform="matrix(-1 -1.74846e-07 -1.74846e-07 1 48.2596 105.153)" fill="#A6A6A6" fill-opacity="0.5"/>
<rect width="3.07221" height="2.30227" rx="0.430476" transform="matrix(-1 -1.74846e-07 -1.74846e-07 1 54.3755 102.698)" fill="#A6A6A6" fill-opacity="0.5"/>
<rect width="2.15055" height="0.460455" rx="0.230228" transform="matrix(-1 -1.74846e-07 -1.74846e-07 1 53.9147 105.153)" fill="#A6A6A6" fill-opacity="0.5"/>
<rect width="3.07221" height="2.30227" rx="0.430476" transform="matrix(-1 -1.74846e-07 -1.74846e-07 1 60.0305 102.698)" fill="#61C3F2"/>
<rect width="2.15055" height="0.460455" rx="0.230228" transform="matrix(-1 -1.74846e-07 -1.74846e-07 1 59.5697 105.153)" fill="#61C3F2"/>
<rect width="3.07221" height="2.30227" rx="0.430476" transform="matrix(-1 -1.74846e-07 -1.74846e-07 1 88.3059 102.698)" fill="#61C3F2"/>
<rect width="2.15055" height="0.460455" rx="0.230228" transform="matrix(-1 -1.74846e-07 -1.74846e-07 1 87.8451 105.153)" fill="#61C3F2"/>
<rect width="3.07221" height="2.30227" rx="0.430476" transform="matrix(-1 -1.74846e-07 -1.74846e-07 1 93.9609 102.698)" fill="#A6A6A6" fill-opacity="0.5"/>
<rect width="2.15055" height="0.460455" rx="0.230228" transform="matrix(-1 -1.74846e-07 -1.74846e-07 1 93.5001 105.153)" fill="#A6A6A6" fill-opacity="0.5"/>
<rect width="3.07221" height="2.30227" rx="0.430476" transform="matrix(-1 -1.74846e-07 -1.74846e-07 1 99.6161 102.698)" fill="#A6A6A6" fill-opacity="0.5"/>
<rect width="2.15055" height="0.460455" rx="0.230228" transform="matrix(-1 -1.74846e-07 -1.74846e-07 1 99.1552 105.153)" fill="#A6A6A6" fill-opacity="0.5"/>
<rect width="3.07221" height="2.30227" rx="0.430476" transform="matrix(-1 -1.74846e-07 -1.74846e-07 1 105.271 102.698)" fill="#61C3F2"/>
<rect width="2.15055" height="0.460455" rx="0.230228" transform="matrix(-1 -1.74846e-07 -1.74846e-07 1 104.81 105.153)" fill="#61C3F2"/>
<rect width="3.07221" height="2.30227" rx="0.430476" transform="matrix(-1 -1.74846e-07 -1.74846e-07 1 127.891 102.698)" fill="#4FD2CF"/>
<rect width="2.15055" height="0.460455" rx="0.230228" transform="matrix(-1 -1.74846e-07 -1.74846e-07 1 127.431 105.153)" fill="#4FD2CF"/>
<rect width="3.07221" height="2.30227" rx="0.430476" transform="matrix(-1 -1.74846e-07 -1.74846e-07 1 133.546 102.698)" fill="#4FD2CF"/>
<rect width="2.15055" height="0.460455" rx="0.230228" transform="matrix(-1 -1.74846e-07 -1.74846e-07 1 133.086 105.153)" fill="#4FD2CF"/>
<rect width="3.07221" height="2.30227" rx="0.430476" transform="matrix(-1 -1.74846e-07 -1.74846e-07 1 139.202 102.698)" fill="#A6A6A6" fill-opacity="0.5"/>
<rect width="2.15055" height="0.460455" rx="0.230228" transform="matrix(-1 -1.74846e-07 -1.74846e-07 1 138.741 105.153)" fill="#A6A6A6" fill-opacity="0.5"/>
<mask id="mask0_42_2129" style="mask-type:alpha" maskUnits="userSpaceOnUse" x="0" y="0" width="145" height="17">
<rect x="0.529297" y="6.10352e-05" width="144.255" height="16.2075" fill="#C4C4C4"/>
</mask>
<g mask="url(#mask0_42_2129)">
<path d="M186.939 42.0382C186.939 47.6429 183.759 52.9969 177.975 57.8805C172.191 62.7637 163.816 67.1662 153.457 70.8655C132.74 78.2639 104.113 82.8419 72.4879 82.8419C40.8622 82.8419 12.2352 78.2639 -8.4815 70.8655C-18.8403 67.1662 -27.2157 62.7637 -32.9992 57.8805C-38.7833 52.9969 -41.9637 47.6429 -41.9637 42.0382C-41.9637 36.4335 -38.7833 31.0796 -32.9992 26.1959C-27.2157 21.3127 -18.8403 16.9103 -8.4815 13.2109C12.2352 5.81259 40.8622 1.23457 72.4879 1.23457C104.113 1.23457 132.74 5.81259 153.457 13.2109C163.816 16.9103 172.191 21.3127 177.975 26.1959C183.759 31.0796 186.939 36.4335 186.939 42.0382Z" fill="url(#paint0_linear_42_2129)" fill-opacity="0.3" stroke="#61C3F2" stroke-width="0.215238"/>
</g>
<defs>
<linearGradient id="paint0_linear_42_2129" x1="72.4879" y1="1.12695" x2="72.4879" y2="12.5828" gradientUnits="userSpaceOnUse">
<stop stop-color="#61C3F2" stop-opacity="0.26"/>
<stop offset="1" stop-color="#61C3F2" stop-opacity="0"/>
</linearGradient>
</defs>
</svg>
